<?xml version="1.0" encoding="utf-8"?>
<!-- Generator: Adobe Illustrator 22.0.1, SVG Export Plug-In . SVG Version: 6.00 Build 0)  -->
<svg version="1.1" id="Layer_1" xmlns="http://www.w3.org/2000/svg" xmlns:xlink="http://www.w3.org/1999/xlink" x="0px" y="0px"
	 viewBox="0 0 27.2 27.2" style="enable-background:new 0 0 27.2 27.2;" xml:space="preserve">
<title>C7E4E42D-59F4-4969-98D5-F6EE2925562D</title>
<desc>Created with sketchtool.</desc>
<g id="Symbols">
	<g id="Social-_x2F_-Instagram">
		<g id="_x30_02-instagram">
			<g transform="translate(11.000000, 11.000000)" fill="currentColor">
				<path id="Shape" d="M9.2,16.2H-4.1c-3.8,0-6.9-3.1-6.9-6.9V-4.1c0-3.8,3.1-6.9,6.9-6.9H9.2c3.8,0,6.9,3.1,6.9,6.9V9.2
					C16.2,13.1,13.1,16.2,9.2,16.2z M-4.1-9.5c-3,0-5.4,2.4-5.4,5.4V9.2c0,3,2.4,5.4,5.4,5.4H9.2c3,0,5.4-2.4,5.4-5.4V-4.1
					c0-3-2.4-5.4-5.4-5.4L-4.1-9.5L-4.1-9.5z"/>
				<path id="Shape_1_" d="M15.4-0.8H5.8c-0.4,0-0.8-0.3-0.8-0.8s0.3-0.8,0.8-0.8h9.6c0.4,0,0.8,0.3,0.8,0.8
					C16.2-1.2,15.8-0.8,15.4-0.8z"/>
				<path id="Shape_2_" d="M-0.9-0.8h-9.4c-0.4,0-0.8-0.3-0.8-0.8c0-0.4,0.3-0.8,0.8-0.8h9.4c0.4,0,0.8,0.3,0.8,0.8
					C-0.1-1.2-0.4-0.8-0.9-0.8z"/>
				<path id="Shape_3_" d="M2.6,8.6c-3.3,0-6.1-2.7-6.1-6.1s2.7-6.1,6.1-6.1c3.3,0,6.1,2.7,6.1,6.1C8.6,5.9,5.9,8.6,2.6,8.6z
					 M2.6-1.9c-2.5,0-4.5,2-4.5,4.5s2,4.5,4.5,4.5s4.5-2,4.5-4.5S5.1-1.9,2.6-1.9z"/>
				<path id="Shape_4_" d="M11.4-2.8H7.9c-0.4,0-0.8-0.3-0.8-0.8v-3.5c0-0.4,0.3-0.8,0.8-0.8h3.5c0.4,0,0.8,0.3,0.8,0.8v3.5
					C12.1-3.2,11.8-2.8,11.4-2.8z M8.6-4.4h1.9v-1.9H8.6V-4.4z"/>
			</g>
		</g>
	</g>
</g>
</svg>
