<?xml version="1.0" encoding="utf-8"?>
<!-- Generator: Adobe Illustrator 22.0.1, SVG Export Plug-In . SVG Version: 6.00 Build 0)  -->
<svg version="1.1" id="Layer_1" xmlns="http://www.w3.org/2000/svg" xmlns:xlink="http://www.w3.org/1999/xlink" x="0px" y="0px"
	 viewBox="0 0 28 24" style="enable-background:new 0 0 28 24;" xml:space="preserve">
<title>Icon / Twitter</title>
<desc>Created with Sketch.</desc>
<g id="Styleguide">
	<g id="Icon-_x2F_-Twitter" fill="currentColor">
		<path id="Shape" d="M25.1,6.8c0-0.3,0-0.5,0-0.8C26.2,5.2,27.2,4.2,28,3c-1,0.5-2.1,0.8-3.3,0.9c1.2-0.7,2.1-1.9,2.5-3.3
			c-1.1,0.7-2.3,1.2-3.6,1.4c-1-1.2-2.5-1.9-4.2-2c-3.2-0.1-5.7,2.6-5.7,6c0,0.5,0,0.9,0.1,1.4C9,7.1,4.8,4.6,1.9,0.8
			C1.4,1.7,1.2,2.8,1.2,3.9c0,2.1,1,4,2.6,5.1C2.8,9,1.9,8.7,1.1,8.3c0,0,0,0.1,0,0.1c0,3,2,5.5,4.6,6c-0.5,0.1-1,0.2-1.5,0.2
			c-0.4,0-0.7,0-1.1-0.1c0.7,2.4,2.9,4.2,5.4,4.3c-2,1.6-4.4,2.6-7.1,2.6c-0.5,0-0.9,0-1.4-0.1C2.5,23,5.5,24,8.8,24
			C19.4,24,25.1,14.8,25.1,6.8z"/>
	</g>
</g>
</svg>
