<?xml version="1.0" encoding="utf-8"?>
<!-- Generator: Adobe Illustrator 22.0.1, SVG Export Plug-In . SVG Version: 6.00 Build 0)  -->
<svg version="1.1" id="Layer_1" xmlns="http://www.w3.org/2000/svg" xmlns:xlink="http://www.w3.org/1999/xlink" x="0px" y="0px"
	 viewBox="0 0 27.235 19.594" style="enable-background:new 0 0 27.235 19.594;" xml:space="preserve">
<title>0552BFC2-A794-476E-9C55-7CB578CC4D65</title>
<desc>Created with sketchtool.</desc>
<g id="Symbols">
	<g id="Social-_x2F_-YouTube">
		<g id="_x30_01-youtube">
			<g transform="translate(11.000000, 15.000000)" fill="currentColor">
				<path id="Shape" d="M16.114-9.775c-0.166-2.791-2.586-5.097-5.396-5.138l-3.786-0.056c-2.371-0.034-6.25-0.037-8.62-0.001
					l-3.864,0.058c-2.814,0.041-5.214,2.351-5.351,5.149l-0.011,0.226c-0.116,2.379-0.116,6.248,0,8.626l0.011,0.23
					c0.136,2.794,2.535,5.113,5.347,5.168l3.873,0.074c1.181,0.023,2.736,0.034,4.292,0.034c1.571,0,3.143-0.011,4.335-0.034
					l3.778-0.074c2.808-0.054,5.226-2.367,5.391-5.157l0.014-0.234c0.141-2.381,0.141-6.257,0-8.639L16.114-9.775z M14.412-1.005
					l-0.014,0.234c-0.112,1.886-1.811,3.511-3.709,3.546L6.911,2.849c-2.354,0.045-6.205,0.046-8.56,0l-3.873-0.074
					c-1.926-0.037-3.57-1.625-3.663-3.54l-0.011-0.23c-0.114-2.332-0.114-6.128,0-8.46l0.011-0.226
					c0.093-1.913,1.735-3.493,3.66-3.521l3.864-0.057c1.163-0.017,2.694-0.026,4.228-0.026c1.572,0,3.148,0.009,4.341,0.027
					l3.785,0.056c1.929,0.028,3.591,1.611,3.706,3.529l0.014,0.231C14.55-7.117,14.55-3.332,14.412-1.005z"/>
				<path id="Shape_1_" d="M7.183-6.233L7.183-6.233c0.283,0.148,0.459,0.44,0.459,0.757c0,0.317-0.177,0.609-0.459,0.757
					L0.382-1.151c-0.126,0.066-0.263,0.098-0.4,0.098c-0.154,0-0.308-0.041-0.444-0.123C-0.72-1.331-0.878-1.608-0.878-1.908v-7.136
					c0-0.3,0.158-0.577,0.416-0.733c0.257-0.156,0.578-0.165,0.845-0.025L7.183-6.233z"/>
			</g>
		</g>
	</g>
</g>
</svg>
