<?xml version="1.0" encoding="UTF-8"?>
<svg width="62px" height="48px" viewBox="0 0 62 48" version="1.1" xmlns="http://www.w3.org/2000/svg" xmlns:xlink="http://www.w3.org/1999/xlink">
    <!-- Generator: sketchtool 46.1 (44463) - http://www.bohemiancoding.com/sketch -->
    <title>72F701A6-ED3F-46BC-BAAF-2A50AA79283C</title>
    <desc>Created with sketchtool.</desc>
    <defs></defs>
    <g id="Symbols" stroke="none" stroke-width="1" fill="none" fill-rule="evenodd">
        <g id="Icon-/-Line-/-Wildlife-/-Birds" fill-rule="nonzero">
            <g>
                <ellipse id="Oval" fill="currentColor" cx="19.6701827" cy="6.18075949" rx="1.37553018" ry="1.37721519"></ellipse>
                <path d="M47.5601697,33.0690633 L48.0755889,26.217519 L45.6752887,26.0364557 L45.2911517,31.1410633 L41.0949755,27.5752911 L28.4516281,27.7269873 L28.4516281,25.3281013 C29.5532659,25.2700759 30.6341697,25.0332152 31.6714812,24.6195443 C32.826522,24.1588861 33.8671713,23.505519 34.7708744,22.6746329 L52.8287537,22.0610633 L47.6657618,19.5473418 C35.9118564,13.5203038 28.3252007,5.29225316 27.4944209,4.36901266 C26.7243263,3.51341772 24.8573475,1.4758481 24.1508711,1.03736709 C23.0719902,0.367696203 21.8336085,0.0137721519 20.569739,0.0137721519 C19.666845,0.0137721519 18.7815498,0.192810127 17.9385318,0.545924051 C15.808584,1.43797468 14.3396998,3.34491139 13.9088352,5.50663291 L10.8396835,8.20212658 L14.2772953,9.37012658 C14.6082316,10.1864304 15.0922969,10.9323544 15.7046101,11.5607089 C15.9492724,11.8117468 16.7018695,12.4546835 17.9160783,13.4751392 C17.5994029,15.313519 17.7952137,17.1887595 18.493093,18.9427848 C19.8039935,22.2370633 22.6605449,24.5427848 26.0446525,25.1704304 L26.0446525,27.7556456 L13.3504307,27.9078481 C13.6338303,25.830481 13.2180359,23.6996456 12.1339967,21.7929114 C10.8331093,19.5044051 8.76485808,17.8759494 6.31064927,17.2076962 L5.15490049,16.892962 L4.83488744,18.0486076 C4.15541599,20.5025823 4.49788254,23.1144304 5.79876998,25.403038 C6.32784339,26.3336709 6.98536705,27.1528101 7.74241436,27.8447595 C4.22985644,28.6 1.26063295,31.2789873 0.314146819,34.763443 L0,35.9207089 L1.15423165,36.2411139 C1.96164763,36.4652152 2.79879935,36.5788354 3.642323,36.5788354 C7.67292985,36.5788354 11.3776574,33.9970633 12.7894976,30.3248608 L30.927279,30.107443 L28.4659902,32.7086582 C27.388323,32.2912405 26.2471387,32.076557 25.0612496,32.076557 C21.2851158,32.076557 17.8171615,34.2211646 16.226199,37.5400506 L15.7079478,38.6211646 L16.7851093,39.1453165 C18.0677912,39.769519 19.454447,40.0859747 20.9064405,40.0859747 C22.7501566,40.0859747 24.5197357,39.5736709 26.0338303,38.664 C25.9775954,39.3791392 25.995801,40.1084557 26.0971452,40.8429367 C26.4567047,43.4515443 27.773168,45.7323544 29.8045024,47.2650127 L30.7610016,47.9866329 L31.4865938,47.0326076 C33.0272887,45.0065823 33.6778336,42.4540759 33.3184763,39.8455696 C33.0104992,37.6109367 31.9983719,35.6184304 30.4381566,34.1292152 L34.2815498,30.0673418 L40.2239413,29.9960506 L60.3414747,47.0915443 L61.8992626,45.2539747 L47.5601697,33.0690633 Z M20.7293409,18.0507342 C20.1241077,16.5299241 20.0137618,14.8904304 20.4097325,13.3093671 L20.5927993,12.5786329 L19.713876,11.8392911 C19.1509201,11.3665823 17.6556378,10.1112911 17.4272594,9.87726582 C16.8947471,9.33083544 16.5113181,8.64435443 16.3186427,7.89205063 C15.7839054,5.80425316 16.8798793,3.60192405 18.8676215,2.76941772 C19.4149005,2.5401519 19.9876672,2.42389873 20.5699413,2.42389873 C21.3852463,2.42389873 22.1851778,2.65286076 22.8708189,3.07807595 C23.0631909,3.21134177 24.0093736,4.09670886 25.7103785,5.98673418 C26.4905873,6.85367089 33.0772529,13.9998987 43.4083948,19.9692152 L33.7495432,20.297519 L33.4128418,20.6383797 C32.6650995,21.3958481 31.779602,21.9818734 30.7806232,22.3801519 C29.8614454,22.7468354 28.8988777,22.932557 27.9195204,22.932557 C24.7317292,22.9327595 21.9092626,21.0166076 20.7293409,18.0507342 Z M19.0856835,37.4422278 C20.4460424,35.6139747 22.6694454,34.4865823 25.0612496,34.4865823 C25.6873181,34.4865823 26.2959902,34.5648608 26.8819054,34.7202025 C25.5216476,36.5482532 23.2981436,37.6758481 20.9063393,37.6758481 C20.2805742,37.6758481 19.6719021,37.5974684 19.0856835,37.4422278 Z M30.9336509,40.1747848 C31.1373507,41.6526582 30.8977455,43.1462278 30.2711713,44.4327089 C29.3200326,43.3640506 28.685367,41.9912911 28.4816672,40.5134177 C28.2780685,39.0356456 28.5175726,37.5419747 29.1443491,36.2552911 C30.0954878,37.3241519 30.7301533,38.6970127 30.9336509,40.1747848 Z M6.92721044,20.0108354 C8.20665579,20.649519 9.30495595,21.6884051 10.0420783,22.9850127 C10.7792007,24.281519 11.1105416,25.7574684 11.0056574,27.1849114 C9.72621207,26.5462278 8.62791191,25.5073418 7.89078956,24.2106329 C7.15366721,22.9141266 6.82232626,21.438481 6.92721044,20.0108354 Z M3.642323,34.1688101 C3.46471778,34.1688101 3.28761827,34.1619241 3.1113279,34.1484557 C4.32199674,31.707038 6.93004241,30.0403038 9.75129527,30.0403038 C9.92890049,30.0403038 10.106,30.0471899 10.2822904,30.0606582 C9.07162153,32.5020759 6.46337357,34.1688101 3.642323,34.1688101 Z" id="Shape" fill="currentColor"></path>
            </g>
        </g>
    </g>
</svg>
