<?xml version="1.0" encoding="UTF-8"?>
<svg width="57px" height="45px" viewBox="0 0 57 45" version="1.1" xmlns="http://www.w3.org/2000/svg" xmlns:xlink="http://www.w3.org/1999/xlink">
    <!-- Generator: sketchtool 46.1 (44463) - http://www.bohemiancoding.com/sketch -->
    <title>00F064FE-AD5D-432B-911A-8A132211D8F7</title>
    <desc>Created with sketchtool.</desc>
    <defs></defs>
    <g id="Symbols" stroke="none" stroke-width="1" fill="none" fill-rule="evenodd">
        <g id="Icon-/-Line-/-Cat-/-Carrier" fill-rule="nonzero" fill="currentColor">
            <g id="Shape">
                <path d="M53.673038,20.8545949 L49.8964557,8.10922785 C49.3485949,6.26035443 47.4088101,4.81203797 45.4805316,4.81203797 L35.694,4.81203797 L35.694,2.66217722 C35.694,1.197 34.5018987,0.00489873418 33.0367215,0.00489873418 L23.0721266,0.00489873418 C21.6069494,0.00489873418 20.4148481,1.19688608 20.4148481,2.66217722 L20.4148481,4.81203797 L10.6283165,4.81203797 C8.69992405,4.81203797 6.76013924,6.26035443 6.21227848,8.10934177 L2.4356962,20.854481 C1.0411519,21.1914684 0,22.4728861 0,23.9987848 L0,25.7525316 C0,27.2785443 1.0411519,28.559962 2.4356962,28.8969494 L6.21227848,41.6422025 C6.76013924,43.4910759 8.69992405,44.9393924 10.6283165,44.9393924 L45.4804177,44.9393924 C47.4088101,44.9393924 49.348481,43.4910759 49.8963418,41.6422025 L53.673038,28.8968354 C55.0675823,28.5598481 56.1086203,27.2784304 56.1086203,25.7526456 L56.1086203,23.9988987 C56.1087342,22.4728861 55.0676962,21.1914684 53.673038,20.8545949 Z M22.351557,2.66217722 C22.351557,2.26492405 22.6747595,1.94160759 23.0721266,1.94160759 L33.0367215,1.94160759 C33.4340886,1.94160759 33.7572911,2.26481013 33.7572911,2.66217722 L33.7572911,4.81203797 L22.351557,4.81203797 L22.351557,2.66217722 Z M8.06924051,8.65948101 C8.37079747,7.64156962 9.56665823,6.74863291 10.6283165,6.74863291 L45.4804177,6.74863291 C46.541962,6.74863291 47.7378228,7.6414557 48.0393797,8.65936709 L51.6270759,20.7671013 L34.0915443,20.7671013 C33.4461646,20.1805063 32.5894557,19.822443 31.6507215,19.822443 L24.4581266,19.822443 C23.5193924,19.822443 22.6625696,20.1805063 22.0173038,20.7671013 L4.48165823,20.7671013 L8.06924051,8.65948101 Z M22.762481,26.2964051 L22.762481,23.4549114 C22.762481,22.5200506 23.5231519,21.7593797 24.4581266,21.7593797 L31.6507215,21.7593797 C32.5856962,21.7593797 33.3463671,22.5200506 33.3463671,23.4550253 L33.3463671,26.296519 C33.3463671,27.2314937 32.5856962,27.9920506 31.6507215,27.9920506 L24.4581266,27.9920506 C23.5231519,27.9919367 22.762481,27.2313797 22.762481,26.2964051 Z M1.93670886,23.9987848 C1.93670886,23.2847089 2.4873038,22.7039241 3.16389873,22.7039241 L3.18121519,22.7039241 C3.18246835,22.7039241 3.18383544,22.7041519 3.18508861,22.7041519 C3.18622785,22.7041519 3.18736709,22.7039241 3.18850633,22.7039241 L20.9042658,22.7039241 C20.8531139,22.9463544 20.8257722,23.197443 20.8257722,23.4549114 L20.8257722,26.2964051 C20.8257722,26.5538734 20.8531139,26.804962 20.9042658,27.0473924 L3.20251899,27.0475063 C3.19841772,27.0473924 3.19431646,27.0475063 3.19021519,27.0475063 L3.16389873,27.0475063 C2.4873038,27.0475063 1.93670886,26.4666076 1.93670886,25.7525316 L1.93670886,23.9987848 Z M48.0394937,41.0918354 C47.7379367,42.1097468 46.5420759,43.0025696 45.4805316,43.0025696 L10.6283165,43.0025696 C9.56665823,43.0025696 8.37091139,42.1097468 8.06924051,41.0918354 L4.48165823,28.9842152 L22.0173038,28.9841013 C22.6626835,29.5706962 23.5193924,29.9287595 24.4581266,29.9287595 L31.6507215,29.9287595 C32.5894557,29.9287595 33.4462785,29.5708101 34.0916582,28.9841013 L51.6273038,28.9841013 L48.0394937,41.0918354 Z M54.1720253,25.7524177 C54.1720253,26.4664937 53.6215443,27.0472785 52.9448354,27.0472785 L52.9171519,27.0472785 C52.9137342,27.0472785 52.9103165,27.0472785 52.9068987,27.0472785 L35.2044684,27.0472785 C35.2556203,26.8048481 35.282962,26.5537595 35.282962,26.2962911 L35.282962,23.4547975 C35.282962,23.1973291 35.2556203,22.9462405 35.2044684,22.7038101 L52.9079241,22.7038101 C52.9104304,22.7038101 52.9129367,22.7038101 52.915443,22.7038101 L52.9448354,22.7038101 C53.6214304,22.7038101 54.1720253,23.2847089 54.1720253,23.9986709 L54.1720253,25.7524177 Z"></path>
                <path d="M27.940443,31.3051899 C27.4056835,31.3051899 26.9720886,31.7387848 26.9720886,32.2735443 L26.9720886,40.7039241 C26.9720886,41.2386835 27.4056835,41.6722785 27.940443,41.6722785 C28.4752025,41.6722785 28.9087975,41.2386835 28.9087975,40.7039241 L28.9087975,32.2735443 C28.9087975,31.7387848 28.4753165,31.3051899 27.940443,31.3051899 Z"></path>
                <path d="M16.6609367,32.0771392 C16.5523671,31.5534304 16.0397089,31.2167848 15.5162278,31.3253544 C14.992519,31.4339241 14.6559873,31.9463544 14.764443,32.4700633 L16.5112405,40.900443 C16.6060253,41.3578481 17.0089747,41.6725063 17.4584051,41.6725063 C17.5235696,41.6725063 17.5896456,41.6658987 17.6558354,41.6521139 C18.1795443,41.5435443 18.5160759,41.0311139 18.4076203,40.5074051 L16.6609367,32.0771392 Z"></path>
                <path d="M40.5926203,31.3253544 C40.0686835,31.2166709 39.556481,31.5534304 39.4479114,32.0771392 L37.7011139,40.507519 C37.5925443,41.0312278 37.9291899,41.5436582 38.4528987,41.6522278 C38.5192025,41.6660127 38.5852785,41.6726203 38.6503291,41.6726203 C39.0997595,41.6726203 39.5027089,41.3578481 39.5976076,40.900557 L41.3444051,32.4701772 C41.4528608,31.9463544 41.1163291,31.4339241 40.5926203,31.3253544 Z"></path>
                <path d="M28.1682911,18.3558987 C28.7030506,18.3558987 29.1366456,17.9223038 29.1366456,17.3875443 L29.1366456,8.95716456 C29.1366456,8.42240506 28.7030506,7.98881013 28.1682911,7.98881013 C27.6335316,7.98881013 27.1999367,8.42240506 27.1999367,8.95716456 L27.1999367,17.3875443 C27.1999367,17.9223038 27.6335316,18.3558987 28.1682911,18.3558987 Z"></path>
                <path d="M39.4479114,17.5840633 C39.5426962,18.0414684 39.9456456,18.3561266 40.3950759,18.3561266 C40.4602405,18.3561266 40.5263165,18.349519 40.5925063,18.3357342 C41.1162152,18.2271646 41.4527468,17.7147342 41.3442911,17.1910253 L39.5974937,8.76064557 C39.4889241,8.23693671 38.9762658,7.90040506 38.4527848,8.00886076 C37.9290759,8.11743038 37.5925443,8.62986076 37.701,9.15356962 L39.4479114,17.5840633 Z"></path>
                <path d="M15.5162278,18.3357342 C15.5825316,18.349519 15.6486076,18.3561266 15.7136582,18.3561266 C16.1630886,18.3561266 16.566038,18.0413544 16.6608228,17.5840633 L18.4076203,9.15368354 C18.5161899,8.62997468 18.1795443,8.1175443 17.6558354,8.00897468 C17.1317848,7.90029114 16.6195823,8.23705063 16.5111266,8.76075949 L14.7643291,17.1911392 C14.6558734,17.7147342 14.992519,18.2272785 15.5162278,18.3357342 Z"></path>
            </g>
        </g>
    </g>
</svg>
