<?xml version="1.0" encoding="UTF-8"?>
<svg width="51px" height="48px" viewBox="0 0 51 48" version="1.1" xmlns="http://www.w3.org/2000/svg" xmlns:xlink="http://www.w3.org/1999/xlink">
    <!-- Generator: sketchtool 46.1 (44463) - http://www.bohemiancoding.com/sketch -->
    <title>2803272B-F97F-4E93-BAAB-4B063EDA5697</title>
    <desc>Created with sketchtool.</desc>
    <defs></defs>
    <g id="Symbols" stroke="none" stroke-width="1" fill="none" fill-rule="evenodd">
        <g id="Icon-/-Line-/-Wildlife-/-Cat" fill-rule="nonzero" fill="currentColor">
            <g id="Shape">
                <path d="M50.4018035,3.61511484 C50.1615894,3.44875635 49.8550623,3.41083332 49.5815346,3.5137074 L41.2424486,6.64780497 C40.7775249,6.58735859 40.3036965,6.55593066 39.8225349,6.55593066 C39.3390687,6.55593066 38.8628308,6.58777763 38.3957071,6.6487478 L30.06364,3.51381216 C29.7901123,3.41093808 29.4835853,3.44886111 29.2433711,3.6152196 C29.0030523,3.78147333 28.8597409,4.05510581 28.8597409,4.34728076 L28.8597409,17.6278843 L19.9613426,17.6278843 C16.0835556,17.6278843 12.6487975,19.5698159 10.5673259,22.5369264 L9.44021574,22.5369264 C7.67888999,22.5369264 6.24598607,21.1040225 6.24598607,19.3428015 C6.24598607,19.3130497 6.24451944,19.283717 6.24158616,19.2548033 L6.24158616,4.06621034 C6.24158616,2.34532186 4.84157681,0.9453125 3.12068832,0.9453125 C1.40000936,0.94541726 0,2.34542662 0,4.06621034 L0,19.6214625 C0,19.74026 0.00785698157,19.8601052 0.0246185423,19.9966071 C0.340469202,24.6038364 3.96987089,28.2734658 8.48208303,28.7334659 C8.476426,28.8812819 8.47275941,29.029517 8.47275941,29.1785901 L8.47275941,44.7451563 C8.47275941,46.4517974 9.86124519,47.8402832 11.5679911,47.8402832 L12.7805853,47.8402832 C14.4872264,47.8402832 15.875817,46.4517974 15.875817,44.7451563 L15.875817,38.7918689 C15.8772836,38.770917 15.8780169,38.749546 15.8780169,38.728175 C15.8780169,37.9692954 16.4922234,37.3036519 17.1923328,37.3036519 L17.3025401,37.3036519 C18.0149064,37.3036519 18.6167512,37.9307438 18.6167512,38.6729666 L18.6167512,44.9013531 C18.6167512,46.608099 20.005237,47.99648 21.7118781,47.99648 L22.9244723,47.99648 C24.6312182,47.99648 26.019704,46.6079942 26.019704,44.9013531 L26.019704,37.2979948 L29.2470377,37.2979948 L29.2470377,44.7451563 C29.2470377,46.4517974 30.6355235,47.8402832 32.3422694,47.8402832 L33.5548636,47.8402832 C35.2615047,47.8402832 36.6499905,46.4517974 36.6499905,44.7451563 L36.6499905,38.4612472 C36.6514572,38.4401905 36.6521905,38.4189242 36.6521905,38.3974485 C36.6521905,37.6385688 37.2663969,36.9729253 37.9665064,36.9729253 L39.1791005,36.9729253 C39.8914669,36.9729253 40.4933116,37.6000172 40.4933116,38.3422401 L40.4933116,44.9012483 C40.4933116,46.6079942 41.8817974,47.9963752 43.5884386,47.9963752 L44.8010327,47.9963752 C46.5077787,47.9963752 47.8961597,46.6078895 47.8961597,44.9012483 L47.8961597,24.9487055 C47.8961597,24.9416866 47.8952168,24.9348772 47.8951121,24.9278583 C49.6852468,22.9790126 50.780929,20.3827516 50.7851194,17.535172 C50.7851194,17.5338101 50.7853289,17.532553 50.7853289,17.5311911 L50.7853289,4.34728076 C50.7854337,4.05510581 50.6421224,3.78147333 50.4018035,3.61511484 Z M30.6406567,5.63331151 L35.4808717,7.45330272 C33.4955696,8.31296126 31.8129184,9.74314143 30.6406567,11.5362094 L30.6406567,5.63331151 Z M1.79044896,19.7370125 L1.78091582,4.06621034 C1.78091582,3.32733979 2.38202729,2.72622832 3.12089784,2.72622832 C3.85976839,2.72622832 4.46087986,3.32733979 4.46087986,4.06621034 L4.46087986,19.3426968 C4.46087986,19.3754866 4.46266077,19.4078573 4.46611785,19.4397043 C4.51807868,22.1383156 6.72945234,24.3178422 9.4403205,24.3178422 L9.54120414,24.3178422 C9.15485017,25.1515204 8.86487517,26.0389403 8.68531695,26.965645 C4.97608833,26.6083095 1.79044896,23.0113834 1.79044896,19.7370125 Z M24.2387882,44.9013531 C24.2387882,45.6259763 23.6492003,46.2155642 22.9244723,46.2155642 L21.7118781,46.2155642 C20.9872549,46.2155642 20.397667,45.6259763 20.397667,44.9013531 L20.397667,38.6729666 C20.397667,38.1807005 20.2770885,37.7141006 20.0656833,37.2979948 L24.2387882,37.2979948 L24.2387882,44.9013531 L24.2387882,44.9013531 Z M44.8011375,46.2156689 L43.5885433,46.2156689 C42.8638154,46.2156689 42.2743322,45.626081 42.2743322,44.9014578 L42.2743322,38.3424496 C42.2743322,36.6054281 40.8858464,35.192219 39.1792053,35.192219 L37.9666111,35.192219 C36.3130832,35.192219 34.9124452,36.6178945 34.8722175,38.322231 C34.8701223,38.347059 34.8690747,38.3722014 34.8690747,38.3975532 L34.8690747,44.745261 C34.8690747,45.4698842 34.2794868,46.0594721 33.5548636,46.0594721 L32.3422694,46.0594721 C31.6175415,46.0594721 31.0279536,45.4698842 31.0279536,44.745261 L31.0279536,31.8935439 C31.0279536,31.4018016 30.6292379,31.003086 30.1374956,31.003086 C29.6457534,31.003086 29.2470377,31.4018016 29.2470377,31.8935439 L29.2470377,35.517079 L17.1923328,35.517079 C15.5388048,35.517079 14.1381669,36.9484115 14.0979392,38.6528528 C14.095844,38.6776808 14.0947964,38.7028232 14.0947964,38.7280703 L14.0947964,44.7451563 C14.0947964,45.4697795 13.5052085,46.0593674 12.7804805,46.0593674 L11.5678864,46.0593674 C10.8431584,46.0593674 10.2535705,45.4697795 10.2535705,44.7451563 L10.2535705,29.1785901 C10.2535705,24.7847565 13.1507015,21.0596044 17.1231914,19.8350676 L17.1231914,23.6923218 C17.1231914,24.184064 17.521907,24.5827797 18.0136493,24.5827797 C18.5053916,24.5827797 18.9041072,24.184064 18.9041072,23.6923218 L18.9041072,19.4669418 C19.2514905,19.428914 19.6040071,19.4088002 19.9611331,19.4088002 L21.2019076,19.4088002 L21.2019076,25.7875168 C21.2019076,26.2792591 21.6006233,26.6779748 22.0923656,26.6779748 C22.5841078,26.6779748 22.9828235,26.2792591 22.9828235,25.7875168 L22.9828235,19.4088002 L25.2807287,19.4088002 L25.2807287,27.9250349 C25.2807287,28.4167772 25.6794443,28.8154928 26.1711866,28.8154928 C26.6629289,28.8154928 27.0616445,28.4167772 27.0616445,27.9250349 L27.0616445,19.4088002 L29.0231661,19.4088002 C29.9213763,24.5561707 34.4219601,28.4817282 39.8224302,28.4817282 C42.162344,28.4817282 44.3329662,27.7444291 46.1152439,26.4906643 L46.1152439,44.9015626 C46.1153486,45.626081 45.5257607,46.2156689 44.8011375,46.2156689 Z M39.8225349,26.7007076 C34.7596008,26.7007076 30.6406567,22.5817636 30.6406567,17.5188294 C30.6406567,12.4558953 34.7596008,8.33695125 39.8225349,8.33695125 C44.8854691,8.33695125 49.0044131,12.4558953 49.0044131,17.5188294 C49.0045179,22.5817636 44.8854691,26.7007076 39.8225349,26.7007076 Z M44.164303,7.45330272 L49.0045179,5.63331151 L49.0045179,11.5362094 C47.8322562,9.74314143 46.1496051,8.31296126 44.164303,7.45330272 Z"></path>
                <path d="M41.9350154,18.5831885 L37.7101592,18.5831885 C37.218417,18.5831885 36.8197013,18.9819042 36.8197013,19.4736464 C36.8197013,19.9653887 37.218417,20.3641044 37.7101592,20.3641044 L38.932077,20.3641044 L38.932077,24.3974597 C38.932077,24.8892019 39.3307926,25.2879176 39.8225349,25.2879176 C40.3142772,25.2879176 40.7129928,24.8892019 40.7129928,24.3974597 L40.7129928,20.3641044 L41.9350154,20.3641044 C42.4267577,20.3641044 42.8254733,19.9653887 42.8254733,19.4736464 C42.8254733,18.9819042 42.4267577,18.5831885 41.9350154,18.5831885 Z"></path>
            </g>
        </g>
    </g>
</svg>
