<?xml version="1.0" encoding="UTF-8"?>
<svg width="36px" height="36px" viewBox="0 0 36 36" version="1.1" xmlns="http://www.w3.org/2000/svg" xmlns:xlink="http://www.w3.org/1999/xlink">
    <!-- Generator: sketchtool 46.1 (44463) - http://www.bohemiancoding.com/sketch -->
    <title>D3643D71-6265-461C-B98F-163115E616A6</title>
    <desc>Created with sketchtool.</desc>
    <defs></defs>
    <g id="Styleguide" stroke="none" stroke-width="1" fill="none" fill-rule="evenodd">
        <g transform="translate(-550.000000, -2343.000000)" id="Icon-/-Filter-/-Chase-hacks" fill="currentColor">
            <g transform="translate(550.000000, 2343.000000)">
                <g id="Fill-1">
                    <path d="M7.16870769,5.67382154 L10.1683385,8.67345231 L17.1667385,1.67449846 C13.5789231,1.82403692 10.0320923,3.15659077 7.16870769,5.67382154 L7.16870769,5.67382154 Z M11.3430462,9.84816 L14.0840308,12.5891446 L23.8610769,2.81320615 C22.4399077,2.24662154 20.9539385,1.88883692 19.4513538,1.73985231 L11.3430462,9.84816 Z M15.2587385,13.7638523 L18.0008308,16.5059446 L28.6861846,5.82059077 C27.6892615,4.92059077 26.6064923,4.16569846 25.4655692,3.55812923 L15.2587385,13.7638523 Z M19.1755385,17.6806523 L21.9170769,20.4221908 L32.1277846,10.2109292 C31.5124615,9.06114462 30.7536923,7.98225231 29.8608923,6.99529846 L19.1755385,17.6806523 Z M23.0917846,21.5968985 L25.8333231,24.3384369 L33.9493846,16.2223754 C33.7992923,14.6954215 33.4365231,13.2138831 32.8754769,11.8132062 L23.0917846,21.5968985 Z M27.0080308,25.5131446 L30.0076615,28.5127754 C32.4612,25.7258215 33.8640923,22.2282831 34.0152923,18.5069908 L27.0080308,25.5131446 Z M3.67172308,10.0093292 L25.6677231,32.0053292 C26.7964615,31.3828062 27.8659385,30.6157292 28.8490154,29.7035446 L5.97793846,6.83302154 C5.07350769,7.80668308 4.302,8.87228308 3.67172308,10.0093292 L3.67172308,10.0093292 Z M1.77092308,15.9410215 L19.7327077,33.9028062 C21.2175692,33.7294523 22.6830462,33.3522831 24.0826154,32.7696369 L2.9052,11.5927754 C2.32809231,12.9724062 1.94538462,14.4328985 1.77092308,15.9410215 L1.77092308,15.9410215 Z M6.40163077,29.2798523 C9.46606154,32.3442831 13.4637231,33.9205292 17.4885231,34.0080369 L1.66513846,18.18576 C1.75375385,22.3772677 3.42747692,26.3056985 6.40163077,29.2798523 L6.40163077,29.2798523 Z M17.8446462,35.6728985 C13.2754154,35.6728985 8.70563077,33.9332677 5.22692308,30.45456 C1.85621538,27.0838523 0.000276923077,22.6026831 0.000276923077,17.8362831 C0.000276923077,13.0698831 1.85621538,8.58871385 5.22692308,5.21856 C12.1843385,-1.73940923 23.5055077,-1.73940923 30.4634769,5.21856 C33.8341846,8.58871385 35.6901231,13.0698831 35.6901231,17.8362831 C35.6901231,22.6026831 33.8341846,27.0838523 30.4634769,30.45456 C26.9842154,33.9332677 22.4144308,35.6728985 17.8446462,35.6728985 L17.8446462,35.6728985 Z"></path>
                </g>
            </g>
        </g>
    </g>
</svg>
