<?xml version="1.0" encoding="UTF-8"?>
<svg width="53px" height="20px" viewBox="0 0 53 20" version="1.1" xmlns="http://www.w3.org/2000/svg" xmlns:xlink="http://www.w3.org/1999/xlink">
    <!-- Generator: sketchtool 46.1 (44463) - http://www.bohemiancoding.com/sketch -->
    <title>CE120073-E82A-447D-ABFB-2B7666D5B1A8</title>
    <desc>Created with sketchtool.</desc>
    <defs></defs>
    <g id="Styleguide" stroke="none" stroke-width="1" fill="none" fill-rule="evenodd">
        <g transform="translate(-615.000000, -2351.000000)" id="Icon-/-Filter-/-Food-hacks" fill="currentColor">
            <g transform="translate(615.000000, 2351.000000)">
                <g id="Icon-/-Food">
                    <path d="M11.0541633,7.34033953 C10.0948531,7.34033953 9.31339262,6.55887901 9.31339262,5.59956885 C9.31339262,4.64025869 10.0948531,3.86418755 11.0541633,3.86418755 C12.0129345,3.86418755 12.794395,4.64025869 12.794395,5.59956885 C12.794395,6.55887901 12.0129345,7.34033953 11.0541633,7.34033953 M52.9673942,18.2861762 L50.9625438,10.1266505 C50.9409863,10.0404204 50.9409863,9.95419025 50.9625438,9.86796012 L52.9566155,1.7677176 C53.1129076,1.12099165 52.1422797,0.754513608 51.7111291,1.29884128 L45.4702237,9.19428725 L43.0563191,9.19428725 L43.0563191,4.97978981 L41.4395042,4.97978981 L41.4395042,9.19428725 L38.7119375,9.19428725 L38.7119375,3.5947184 L37.0951226,3.5947184 L37.0951226,9.19428725 L34.3632444,9.19428725 L34.3632444,2.57073565 L32.7464295,2.57073565 L32.7464295,9.19428725 L30.0140124,9.19428725 L30.0140124,1.72460253 L28.3971975,1.72460253 L28.3971975,9.19428725 L25.6701698,9.19428725 L25.6701698,1.02398275 L24.0533549,1.02398275 L24.0533549,9.19428725 L21.3209378,9.19428725 L21.3209378,0 L19.7041229,0 L19.7041229,9.19428725 L16.0118566,9.19428725 L16.0118566,0 C9.09188898,0 0,7.39423336 0,10.0026947 C0,12.611156 9.09188898,20 16.0118566,20 L16.0118566,10.8111021 L19.7041229,10.8111021 L19.7041229,20 L21.3209378,20 L21.3209378,10.8111021 L24.0533549,10.8111021 L24.0533549,18.7927782 L25.6701698,18.7927782 L25.6701698,10.8111021 L28.3971975,10.8111021 L28.3971975,18.2592293 L30.0140124,18.2592293 L30.0140124,10.8111021 L32.7464295,10.8111021 L32.7464295,17.3484236 L34.3632444,17.3484236 L34.3632444,10.8111021 L37.0951226,10.8111021 L37.0951226,16.3513878 L38.7119375,16.3513878 L38.7119375,10.8111021 L41.4395042,10.8111021 L41.4395042,14.9555376 L43.0563191,14.9555376 L43.0563191,10.8111021 L45.4168688,10.8111021 L51.7224468,18.7550525 C52.1535974,19.2993802 53.1236863,18.9329022 52.9673942,18.2861762" id="Fill-1"></path>
                </g>
            </g>
        </g>
    </g>
</svg>
