<?xml version="1.0" encoding="UTF-8"?>
<svg width="57px" height="48px" viewBox="0 0 57 48" version="1.1" xmlns="http://www.w3.org/2000/svg" xmlns:xlink="http://www.w3.org/1999/xlink">
    <!-- Generator: sketchtool 46.1 (44463) - http://www.bohemiancoding.com/sketch -->
    <title>9D5B8F4B-E845-4001-9936-C25838B1C125</title>
    <desc>Created with sketchtool.</desc>
    <defs></defs>
    <g id="Symbols" stroke="none" stroke-width="1" fill="none" fill-rule="evenodd">
        <g id="Icon-/-Line-/-Wildlife-/-Lizard">
            <g>
                <path d="M10.664759,12.4675325 C9.97086492,12.4675325 9.41008144,13.0248896 9.41008144,13.7142857 C9.41008144,14.4025277 9.97098107,14.961039 10.664759,14.961039 C11.3573753,14.961039 11.9194365,14.4025277 11.9194365,13.7142857 C11.9194365,13.0248896 11.3573753,12.4675325 10.664759,12.4675325 Z" id="Shape" fill="currentColor" fill-rule="nonzero"></path>
                <path d="M10.664759,9.35064935 C8.24318805,9.35064935 6.27338763,11.3080089 6.27338763,13.7142857 C6.27338763,16.1205625 8.24318805,18.0779221 10.664759,18.0779221 C13.0863299,18.0779221 15.0561303,16.1205625 15.0561303,13.7142857 C15.0561303,11.3080089 13.0863299,9.35064935 10.664759,9.35064935 Z M10.664759,16.0164442 C9.38648536,16.0164442 8.34807478,14.9833197 8.34807478,13.7143917 C8.34807478,12.4441914 9.38659206,11.4123392 10.664759,11.4123392 C11.9418589,11.4123392 12.9814432,12.4442975 12.9814432,13.7143917 C12.9814432,14.9833197 11.9418589,16.0164442 10.664759,16.0164442 Z" id="Shape" fill="currentColor" fill-rule="nonzero"></path>
                <path d="M44.1990349,12.3850928 C41.3792223,9.62415344 37.6227288,8.1038961 33.620786,8.1038961 L30.6706746,8.1038961 C30.0148991,8.1038961 29.4849219,8.61751233 29.4849219,9.25043103 C29.4849219,9.88334973 30.0150089,10.396966 30.6706746,10.396966 L33.6208958,10.396966 C36.9837484,10.396966 40.1414379,11.675328 42.5118456,13.9971621 C42.7430245,14.2241976 43.0489579,14.3376623 43.3548914,14.3376623 C43.6561046,14.3376623 43.9572081,14.2275941 44.1884968,14.0074577 C44.6543674,13.5626209 44.6591974,12.8356612 44.1990349,12.3850928 Z" id="Shape" fill="currentColor" fill-rule="nonzero"></path>
                <path d="M55.2694126,21.5231184 L52.2604597,21.5231184 C51.6398342,11.7652291 43.4884455,4.01599982 33.5550191,4.01599982 L28.7722992,4.01599982 C26.5542357,4.01599982 24.4042117,4.39273361 22.3588383,5.13794914 L22.3588383,2.60170772 C22.3588383,1.16717058 21.1890452,0 19.7512849,0 C19.6393562,0 19.5273172,0.00836208181 19.4070076,0.0237659167 C15.6154358,0.455183322 12.1728831,2.26293338 9.65939395,5.12969708 C4.95419701,5.8226496 0,11.4859795 0,16.3542515 C0,18.5946293 1.00294755,20.3025845 2.57303741,21.5232284 L1.98692787,21.5232284 C1.32936039,21.5232284 0.795741566,22.0545507 0.795741566,22.7117443 L0.795741566,28.3228112 C0.795741566,28.9789045 1.32936039,29.5113271 1.98692787,29.5113271 L14.4289913,29.5113271 L11.6975995,32.2365956 C9.17705282,31.800447 6.56475765,32.6098085 4.73861015,34.4318621 C3.23766247,35.9293349 2.42052763,37.95813 2.42052763,40.030936 C2.42052763,40.709585 2.50863704,41.3929651 2.68849493,42.0644623 C2.79810788,42.4757447 3.11966864,42.7965846 3.53187512,42.9059518 C4.20366803,43.0854065 4.88869389,43.1722181 5.56765465,43.1722181 C7.64511797,43.1722181 9.67847146,42.3581254 11.1806322,40.8593323 C13.0055666,39.038489 13.8167466,36.4320501 13.3819339,33.917154 L17.7977702,29.5112171 L44.0684899,29.5112171 C43.7527737,31.4793871 43.1167098,33.3823108 42.1661427,35.1923714 C40.6532853,38.074539 38.4090868,40.5170371 35.675269,42.2545896 C33.0236058,43.9410895 29.9610594,44.9418987 26.8211003,45.1463296 C26.2290359,45.1854993 25.7573914,45.6514653 25.7108555,46.2409921 C25.6643196,46.8305188 26.0598746,47.3629414 26.6376033,47.4925537 C28.1671121,47.8348489 29.7037888,48 31.2237037,48 C38.9260542,48 46.2030755,43.7558034 49.8909892,36.7303343 C51.0739049,34.475653 51.8362333,32.0201717 52.1435686,29.5112171 L55.2693023,29.5112171 C55.9268698,29.5112171 56.4604886,28.9787945 56.4604886,28.3227012 L56.4604886,22.7116343 C56.4605989,22.0544406 55.9269801,21.5231184 55.2694126,21.5231184 Z M9.4962978,39.1787739 C8.27291131,40.3994178 6.54446712,40.9711201 4.85064915,40.7488648 C4.62668142,39.058734 5.19966828,37.3330644 6.42305477,36.1124205 C7.64644127,34.8917766 9.37609848,34.3212846 11.0687034,34.5435399 C11.2913479,36.2335606 10.7184713,37.95813 9.4962978,39.1787739 Z M18.8996341,27.1341853 L3.17811418,27.1341853 L3.17811418,23.9001501 L19.1092661,23.9073019 L18.8197953,24.9329773 C18.6125893,25.6675201 18.6434662,26.4305601 18.8996341,27.1341853 Z M33.6907672,27.1341853 L25.6847204,27.1341853 C25.7144946,27.0534252 26.6079394,23.9073019 26.6079394,23.9073019 L33.9005095,23.9073019 L33.6110386,24.9329773 C33.4025094,25.6675201 33.4334965,26.4305601 33.6907672,27.1341853 Z M40.4746405,27.1341853 C40.5044146,27.0534252 41.3990725,23.9073019 41.3990725,23.9073019 L43.6898069,23.9073019 C44.0174328,23.9073019 44.2854001,24.1735682 44.2854001,24.5015599 C44.2854001,24.5015599 44.293781,27.0711396 44.2913549,27.1341853 L40.4746405,27.1341853 Z M49.9173448,26.7752759 C49.9173448,26.7847383 49.9161318,26.7931004 49.9161318,26.8025627 C49.948332,29.8535123 49.2097127,32.9044618 47.7803332,35.6274197 C45.1918574,40.5574171 40.6117118,43.9436201 35.4288053,45.1428087 C35.9494117,44.8706009 36.4592112,44.5758375 36.955888,44.2597288 C40.039938,42.2986006 42.5711813,39.544835 44.2770192,36.295396 C45.8363022,33.322896 46.6462691,30.1292409 46.6832111,26.8025627 C46.6844242,26.7359961 46.6677727,24.5015599 46.6677727,24.5015599 C46.6677727,22.8625918 45.3312445,21.5302701 43.6898069,21.5302701 L42.0721887,21.5302701 L42.242563,20.9265498 C42.7440919,19.1509278 41.8292538,17.2944356 40.1127192,16.6074246 C40.043577,16.5801378 38.3651975,15.9311962 38.3651975,15.9311962 C37.7552687,15.6863853 37.0608695,15.9822489 36.8166112,16.5920207 C36.5712502,17.2005822 36.8677786,17.8923244 37.4789205,18.1371354 C37.4789205,18.1371354 39.2812487,18.8526435 39.3383709,18.8657368 C39.8481704,19.1307928 40.1078671,19.7178989 39.9495128,20.2812392 L38.2627524,26.2429634 C38.1150947,26.7683442 37.6302173,27.1344053 37.0846888,27.1344053 C36.9727601,27.1344053 36.860721,27.1190015 36.7500053,27.0880838 C36.4355022,26.9989616 36.1734897,26.7933204 36.0138121,26.5081294 C35.8541344,26.2228284 35.8148767,25.8924161 35.9041991,25.578728 L37.0001082,21.7029031 C37.178753,21.071786 36.8106564,20.4144824 36.1770185,20.2374483 C35.5432703,20.0592039 34.8858131,20.4264753 34.707058,21.0574824 L34.5736257,21.5304902 L27.2810556,21.5304902 L27.4514299,20.9267699 C27.9540616,19.1511478 27.0381207,17.2946556 25.3227992,16.6076446 C25.2525542,16.5803578 23.5741747,15.9314163 23.5741747,15.9314163 C22.9642459,15.6866053 22.2709494,15.982469 22.0255884,16.5922408 C21.7814404,17.2008023 22.0767558,17.8925445 22.6878977,18.1373554 C22.6878977,18.1373554 24.4913286,18.8528636 24.5485611,18.8659568 C25.0571476,19.1310128 25.3180574,19.718119 25.15849,20.2814592 L23.4729426,26.2431835 C23.3240719,26.7685643 22.8404075,27.1346254 22.294879,27.1346254 C22.1829503,27.1346254 22.0709113,27.1192216 21.9601956,27.0883039 C21.6444794,26.9991817 21.3836799,26.7935405 21.2240023,26.5083495 C21.0632219,26.2231585 21.0250669,25.8926362 21.1131763,25.5789481 L22.2090854,21.7031232 C22.3877302,21.0720061 22.0196336,20.4147024 21.3859957,20.2376683 C20.7522475,20.059424 20.09468,20.4266954 19.9160352,21.0577025 L19.7826029,21.5307102 L10.3149765,21.5235585 C4.06946383,21.3607179 2.38281371,18.2265877 2.38281371,16.3546916 C2.38281371,14.5754387 3.36315497,12.4135104 5.00470278,10.5701115 C6.64614031,8.72902316 8.64144905,7.56075231 10.3424349,7.44544361 C10.6700607,7.42288799 10.973757,7.26719923 11.182176,7.0140262 C13.3263555,4.406377 16.346005,2.76267779 19.6862229,2.3847337 C19.6946038,2.3835234 19.7016613,2.3823131 19.7088292,2.3823131 C19.7338615,2.37879222 19.9767965,2.47858706 19.9767965,2.60214783 L19.9767965,6.92963519 C19.9767965,7.33849698 20.1876415,7.71886167 20.5342346,7.9362758 C20.8808277,8.15379996 21.3156405,8.17877617 21.6849501,8.00042177 C23.9041163,6.93425634 26.288915,6.39358174 28.77263,6.39358174 L33.55535,6.39358174 C42.577467,6.39358174 49.9176756,13.717335 49.9176756,22.7192261 L49.9176756,26.7752759 L49.9173448,26.7752759 Z M54.0782263,27.1341853 L52.2961887,27.1341853 C52.2974017,27.0295492 52.2997174,23.9001501 52.2997174,23.9001501 L54.0782263,23.9001501 L54.0782263,27.1341853 L54.0782263,27.1341853 Z" id="Shape" fill="currentColor" fill-rule="nonzero"></path>
                <path d="M10.664759,12.4675325 C9.97086492,12.4675325 9.41008144,13.0248896 9.41008144,13.7142857 C9.41008144,14.4025277 9.97098107,14.961039 10.664759,14.961039 C11.3573753,14.961039 11.9194365,14.4025277 11.9194365,13.7142857 C11.9194365,13.0248896 11.3573753,12.4675325 10.664759,12.4675325 Z" id="Shape" fill="currentColor" fill-rule="nonzero"></path>
                <g id="SVGCleanerId_1" transform="translate(5.646049, 9.350649)"></g>
                <g id="SVGCleanerId_2" transform="translate(29.484922, 7.480519)" fill-rule="nonzero" fill="currentColor">
                    <path d="M14.6907464,4.71097143 C11.8881241,1.73817143 8.1545311,0.101257143 4.17698514,0.101257143 L1.24485831,0.101257143 C0.593080611,0.101257143 0.0663342553,0.654285714 0.0663342553,1.33577143 C0.0663342553,2.01725714 0.593189714,2.57028571 1.24485831,2.57028571 L4.17709424,2.57028571 C7.51944607,2.57028571 10.6578855,3.94674286 13.0138426,6.44674286 C13.2436122,6.6912 13.5476806,6.81337143 13.851749,6.81337143 C14.151126,6.81337143 14.4503938,6.69485714 14.6802726,6.45782857 C15.1433031,5.97885714 15.1481036,5.19611429 14.6907464,4.71097143 Z" id="Shape"></path>
                </g>
                <path d="M44.1990349,12.3850928 C41.3792223,9.62415344 37.6227288,8.1038961 33.620786,8.1038961 L30.6706746,8.1038961 C30.0148991,8.1038961 29.4849219,8.61751233 29.4849219,9.25043103 C29.4849219,9.88334973 30.0150089,10.396966 30.6706746,10.396966 L33.6208958,10.396966 C36.9837484,10.396966 40.1414379,11.675328 42.5118456,13.9971621 C42.7430245,14.2241976 43.0489579,14.3376623 43.3548914,14.3376623 C43.6561046,14.3376623 43.9572081,14.2275941 44.1884968,14.0074577 C44.6543674,13.5626209 44.6591974,12.8356612 44.1990349,12.3850928 Z" id="Shape" fill="currentColor" fill-rule="nonzero"></path>
                <path d="M10.664759,12.4675325 C9.97086492,12.4675325 9.41008144,13.0248896 9.41008144,13.7142857 C9.41008144,14.4025277 9.97098107,14.961039 10.664759,14.961039 C11.3573753,14.961039 11.9194365,14.4025277 11.9194365,13.7142857 C11.9194365,13.0248896 11.3573753,12.4675325 10.664759,12.4675325 Z" id="Shape" fill="currentColor" fill-rule="nonzero"></path>
                <path d="M10.664759,12.4675325 C9.97086492,12.4675325 9.41008144,13.0248896 9.41008144,13.7142857 C9.41008144,14.4025277 9.97098107,14.961039 10.664759,14.961039 C11.3573753,14.961039 11.9194365,14.4025277 11.9194365,13.7142857 C11.9194365,13.0248896 11.3573753,12.4675325 10.664759,12.4675325 Z" id="Shape" fill="currentColor" fill-rule="nonzero"></path>
                <path d="M10.664759,12.4675325 C9.97086492,12.4675325 9.41008144,13.0248896 9.41008144,13.7142857 C9.41008144,14.4025277 9.97098107,14.961039 10.664759,14.961039 C11.3573753,14.961039 11.9194365,14.4025277 11.9194365,13.7142857 C11.9194365,13.0248896 11.3573753,12.4675325 10.664759,12.4675325 Z" id="Shape" fill="currentColor" fill-rule="nonzero"></path>
            </g>
        </g>
    </g>
</svg>
