<?xml version="1.0" encoding="UTF-8"?>
<svg width="44px" height="32px" viewBox="0 0 44 32" version="1.1" xmlns="http://www.w3.org/2000/svg" xmlns:xlink="http://www.w3.org/1999/xlink">
    <!-- Generator: sketchtool 46.1 (44463) - http://www.bohemiancoding.com/sketch -->
    <title>6C16A5EA-F999-4D3F-B937-9612EA4F10A5</title>
    <desc>Created with sketchtool.</desc>
    <defs></defs>
    <g id="Symbols" stroke="none" stroke-width="1" fill="none" fill-rule="evenodd">
        <g id="Icon-/-Line-/-Mail" fill-rule="nonzero" fill="currentColor">
            <g id="Shape">
                <path d="M34.9777391,24.0573913 C34.8066087,24.0573913 34.6354783,23.9947826 34.501913,23.8681739 L26.4963478,16.357913 C26.2166957,16.0963478 26.2027826,15.6553043 26.4657391,15.3756522 C26.7286957,15.0932174 27.1669565,15.0806957 27.4493913,15.3450435 L35.4549565,22.8553043 C35.7346087,23.1168696 35.7485217,23.557913 35.4855652,23.8375652 C35.3478261,23.9836522 35.1641739,24.0573913 34.9777391,24.0573913 Z"></path>
                <path d="M8.25495652,24.0573913 C8.06991304,24.0573913 7.88486957,23.9836522 7.74713043,23.8375652 C7.48417391,23.557913 7.49808696,23.1168696 7.77773913,22.8553043 L15.786087,15.3450435 C16.0671304,15.0834783 16.5081739,15.0946087 16.7697391,15.3756522 C17.0326957,15.6553043 17.0187826,16.0963478 16.7391304,16.357913 L8.73078261,23.8681739 C8.59721739,23.9947826 8.42608696,24.0573913 8.25495652,24.0573913 Z"></path>
                <path d="M39.7123478,31.0403478 L3.52173913,31.0403478 C1.60452174,31.0403478 0.0434782609,29.4806957 0.0434782609,27.562087 L0.0434782609,3.84452174 C0.0434782609,1.92591304 1.60452174,0.36626087 3.52173913,0.36626087 L39.7123478,0.36626087 C41.6295652,0.36626087 43.1906087,1.92591304 43.1906087,3.84452174 L43.1906087,27.562087 C43.1906087,29.4806957 41.6295652,31.0403478 39.7123478,31.0403478 Z M3.52173913,1.75756522 C2.37113043,1.75756522 1.43478261,2.69391304 1.43478261,3.84452174 L1.43478261,27.562087 C1.43478261,28.7126957 2.37113043,29.6490435 3.52173913,29.6490435 L39.7123478,29.6490435 C40.8629565,29.6490435 41.7993043,28.7126957 41.7993043,27.562087 L41.7993043,3.84452174 C41.7993043,2.69391304 40.8629565,1.75756522 39.7123478,1.75756522 L3.52173913,1.75756522 Z"></path>
                <path d="M21.6170435,19.1989565 C20.6918261,19.1989565 19.7666087,18.8914783 19.0626087,18.277913 L1.19826087,2.69391304 C0.908869565,2.44208696 0.87826087,2.00243478 1.13008696,1.71165217 C1.38469565,1.42226087 1.82295652,1.39582609 2.11234783,1.64486957 L19.9766957,17.2274783 C20.8657391,18.0024348 22.3683478,18.0024348 23.256,17.2274783 L41.098087,1.66991304 C41.386087,1.41808696 41.8243478,1.44591304 42.0803478,1.73669565 C42.3321739,2.02747826 42.3029565,2.46573913 42.0135652,2.71895652 L24.1714783,18.2765217 C23.466087,18.8914783 22.5422609,19.1989565 21.6170435,19.1989565 Z"></path>
            </g>
        </g>
    </g>
</svg>
