<?xml version="1.0" encoding="UTF-8"?>
<svg viewBox="0 0 30 30" version="1.1" xmlns="http://www.w3.org/2000/svg" xmlns:xlink="http://www.w3.org/1999/xlink">
    <!-- Generator: Sketch 47.1 (45422) - http://www.bohemiancoding.com/sketch -->
    <title>Icon / Paw</title>
    <desc>Created with Sketch.</desc>
    <defs></defs>
    <g id="Styleguide" stroke="none" stroke-width="1" fill="none" fill-rule="evenodd">
        <g id="Icon-/-Paw" fill-rule="nonzero" fill="currentColor">
            <g id="paw-print" transform="translate(1.000000, 3.000000)">
                <path d="M9.24514286,10.6825714 C7.07314286,10.6825714 5.30657143,8.31128571 5.30657143,5.39657143 C5.30657143,2.48185714 7.07357143,0.110571429 9.24514286,0.110571429 C11.4167143,0.110571429 13.1837143,2.48185714 13.1837143,5.39657143 C13.1837143,8.31128571 11.4167143,10.6825714 9.24514286,10.6825714 Z M9.24514286,1.39628571 C7.80685714,1.39628571 6.59228571,3.22842857 6.59228571,5.39657143 C6.59228571,7.56471429 7.80685714,9.39685714 9.24514286,9.39685714 C10.6834286,9.39685714 11.898,7.56471429 11.898,5.39657143 C11.898,3.22842857 10.683,1.39628571 9.24514286,1.39628571 Z M20.9271429,15.8237143 C21.0205714,15.951 21.1148571,16.08 21.1937143,16.218 C22.7614286,18.9784286 22.3714286,22.17 20.3237143,23.3335714 C19.953,23.5452857 19.5587143,23.6515714 19.1528571,23.6515714 C18.207,23.6515714 17.3352857,23.0768571 16.4121429,22.4691429 C15.8091429,22.0731429 15.1864286,21.6621429 14.478,21.3497143 C14.3781429,21.3145714 13.9131429,21.2571429 13.2638571,21.2571429 C12.7182857,21.2571429 12.3852857,21.2978571 12.3034286,21.3248571 C11.5765714,21.6261429 10.9225714,22.0294286 10.29,22.4181429 C9.29442857,23.0314286 8.43514286,23.5598571 7.49614286,23.5598571 C7.04142857,23.5598571 6.60728571,23.43 6.20571429,23.1711429 C5.21014286,22.5317143 4.62642857,21.4101429 4.56214286,20.013 C4.50128571,18.6981429 4.914,17.28 5.724,16.0195714 C5.80157143,15.8991429 5.892,15.7885714 5.98285714,15.6797143 C6.06,15.5875714 6.13285714,15.4997143 6.16585714,15.4328571 C7.12457143,13.4622857 9.52071429,11.3571429 13.3714286,11.3571429 L13.5218571,11.358 C17.4321429,11.4132857 19.8471429,13.6358571 20.7274286,15.5207143 C20.7685714,15.6102857 20.8461429,15.714 20.9271429,15.8237143 Z M19.6881429,22.2162857 C21.1195714,21.4024286 21.2931429,18.9968571 20.076,16.854 C20.0224286,16.7601429 19.956,16.674 19.8934286,16.5887143 C19.7837143,16.4395714 19.6585714,16.2698571 19.5621429,16.0645714 C18.8395714,14.5161429 16.8188571,12.6904286 13.5034286,12.6437143 L13.3714286,12.6428571 C10.1138571,12.6428571 8.11071429,14.3738571 7.32214286,15.9942857 C7.22057143,16.203 7.08685714,16.3628571 6.96942857,16.5034286 C6.91242857,16.5711429 6.85371429,16.6384286 6.80528571,16.7142857 C6.13842857,17.7522857 5.79771429,18.903 5.84614286,19.953 C5.89114286,20.9215714 6.26528571,21.6805714 6.90085714,22.089 C7.09714286,22.2154286 7.28614286,22.2741429 7.49614286,22.2741429 C8.07128571,22.2741429 8.787,21.8322857 9.61585714,21.3231429 C10.26,20.9267143 10.9898571,20.4784286 11.8225714,20.1321429 C12.0805714,20.0262857 12.5652857,19.9714286 13.2634286,19.9714286 C13.74,19.9714286 14.6005714,19.998 14.9974286,20.1737143 C15.8044286,20.5302857 16.5021429,20.9901429 17.1184286,21.396 C17.9095714,21.9167143 18.5918571,22.3662857 19.1524286,22.3662857 C19.3375714,22.3662857 19.5072857,22.3182857 19.6881429,22.2162857 Z M17.619,10.6825714 C15.4474286,10.6825714 13.6808571,8.31128571 13.6808571,5.39657143 C13.6808571,2.48185714 15.4478571,0.110571429 17.619,0.110571429 C19.7914286,0.110571429 21.558,2.48185714 21.558,5.39657143 C21.558,8.31128571 19.791,10.6825714 17.619,10.6825714 Z M17.619,1.39628571 C16.1811429,1.39628571 14.9665714,3.22842857 14.9665714,5.39657143 C14.9665714,7.56471429 16.1811429,9.39685714 17.619,9.39685714 C19.0577143,9.39685714 20.2722857,7.56471429 20.2722857,5.39657143 C20.2722857,3.22842857 19.0568571,1.39628571 17.619,1.39628571 Z M24.0878571,7.968 C25.8282857,7.968 27.1907143,9.77357143 27.1907143,12.078 C27.1907143,14.3815714 25.8278571,16.1871429 24.0878571,16.1871429 C22.3478571,16.1871429 20.9845714,14.3815714 20.9845714,12.078 C20.9845714,9.77357143 22.3474286,7.968 24.0878571,7.968 Z M24.0878571,14.9014286 C25.0727143,14.9014286 25.905,13.608 25.905,12.078 C25.905,10.5471429 25.0731429,9.25371429 24.0878571,9.25371429 C23.1025714,9.25371429 22.2702857,10.5471429 22.2702857,12.078 C22.2702857,13.608 23.1025714,14.9014286 24.0878571,14.9014286 Z M6.20657143,12.078 C6.20657143,14.3815714 4.84328571,16.1871429 3.10328571,16.1871429 C1.36328571,16.1871429 0,14.3815714 0,12.078 C0,9.77357143 1.36328571,7.968 3.10328571,7.968 C4.84328571,7.968 6.20657143,9.77357143 6.20657143,12.078 Z M3.10328571,14.9014286 C4.08857143,14.9014286 4.92085714,13.608 4.92085714,12.078 C4.92085714,10.5471429 4.08857143,9.25371429 3.10328571,9.25371429 C2.118,9.25371429 1.28571429,10.5471429 1.28571429,12.078 C1.28571429,13.608 2.118,14.9014286 3.10328571,14.9014286 Z" id="Combined-Shape"></path>
            </g>
        </g>
    </g>
</svg>
