<?xml version="1.0" encoding="UTF-8"?>
<svg width="80px" height="80px" viewBox="0 0 80 80" version="1.1" xmlns="http://www.w3.org/2000/svg" xmlns:xlink="http://www.w3.org/1999/xlink">
    <!-- Generator: sketchtool 46.1 (44463) - http://www.bohemiancoding.com/sketch -->
    <title>77EAAD16-170C-4BA7-BBD3-C41639152A1A</title>
    <desc>Created with sketchtool.</desc>
    <defs></defs>
    <g id="Templates" stroke="none" stroke-width="1" fill="none" fill-rule="evenodd">
        <g id="D---About-Us" transform="translate(-910.000000, -3083.000000)" fill-rule="nonzero" fill="currentColor">
            <g id="Video" transform="translate(329.000000, 2774.000000)">
                <g id="Icon-/-Play" transform="translate(581.000000, 309.000000)">
                    <path d="M60.7506667,38.8986667 L31.4173333,18.8986667 C31.008,18.6213333 30.48,18.5906667 30.0426667,18.8213333 C29.6066667,19.052 29.3333333,19.5053333 29.3333333,20 L29.3333333,60 C29.3333333,60.4946667 29.6066667,60.948 30.044,61.1786667 C30.2386667,61.2826667 30.4533333,61.3333333 30.6666667,61.3333333 C30.9293333,61.3333333 31.192,61.2546667 31.4173333,61.1013333 L60.7506667,41.1013333 C61.1146667,40.8533333 61.3333333,40.4413333 61.3333333,40 C61.3333333,39.5586667 61.1146667,39.1466667 60.7506667,38.8986667 Z M32,57.476 L32,22.524 L57.6333333,40 L32,57.476 Z" id="Shape"></path>
                    <path d="M40,0 C17.944,0 0,17.944 0,40 C0,62.056 17.944,80 40,80 C62.056,80 80,62.056 80,40 C80,17.944 62.056,0 40,0 Z M40,77.3333333 C19.4146667,77.3333333 2.66666667,60.5853333 2.66666667,40 C2.66666667,19.4146667 19.4146667,2.66666667 40,2.66666667 C60.5853333,2.66666667 77.3333333,19.4146667 77.3333333,40 C77.3333333,60.5853333 60.5853333,77.3333333 40,77.3333333 Z" id="Shape"></path>
                </g>
            </g>
        </g>
    </g>
</svg>
