<?xml version="1.0" encoding="UTF-8"?>
<svg width="46px" height="36px" viewBox="0 0 46 36" version="1.1" xmlns="http://www.w3.org/2000/svg" xmlns:xlink="http://www.w3.org/1999/xlink">
    <!-- Generator: sketchtool 46.1 (44463) - http://www.bohemiancoding.com/sketch -->
    <title>B70AB538-75A9-4857-8ED5-198490DE9437</title>
    <desc>Created with sketchtool.</desc>
    <defs>
        <polygon id="path-1" points="0 35.644427 0 8.88747017e-05 45.5599459 8.88747017e-05 45.5599459 35.644427"></polygon>
    </defs>
    <g id="Styleguide" stroke="none" stroke-width="1" fill="none" fill-rule="evenodd">
        <g transform="translate(-754.000000, -2343.000000)" id="Icon-/-Filter-/-Sleep-hacks">
            <g transform="translate(754.000000, 2343.000000)">
                <g id="Icon-/-Sleep">
                    <mask id="mask-2" fill="white">
                        <use xlink:href="#path-1"></use>
                    </mask>
                    <g id="Clip-2"></g>
                    <path d="M23.7396649,23.0634 C23.7396649,22.5433459 23.3178811,22.1210757 22.7973405,22.1210757 L14.4828,22.1210757 L23.3645838,13.1517243 C23.6321514,12.8822108 23.7109622,12.4774541 23.5650162,12.1266973 C23.4180973,11.7759405 23.0751243,11.5472919 22.6951784,11.5472919 L12.2240432,11.5472919 C11.7035027,11.5472919 11.2817189,11.9690757 11.2817189,12.4891297 C11.2817189,13.0091838 11.7035027,13.4314541 12.2240432,13.4314541 L20.4364216,13.4314541 L11.5546378,22.4008054 C11.2870703,22.6708054 11.2082595,23.0750757 11.3546919,23.4263189 C11.5011243,23.7770757 11.8440973,24.0057243 12.2240432,24.0057243 L22.797827,24.0057243 C23.3178811,24.0057243 23.7396649,23.5834541 23.7396649,23.0634 M45.5605297,23.0634 C45.5605297,22.5433459 45.1382595,22.1210757 44.6177189,22.1210757 L40.1366919,22.1210757 L45.2219351,16.9862108 C45.4895027,16.7162108 45.5683135,16.3114541 45.4218811,15.9602108 C45.2759351,15.6099405 44.9324757,15.3808054 44.5525297,15.3808054 L37.8779351,15.3808054 C37.3578811,15.3808054 36.9356108,15.8030757 36.9356108,16.3236162 C36.9356108,16.8441568 37.3573946,17.2659405 37.8779351,17.2659405 L42.2932865,17.2659405 L37.2090162,22.4008054 C36.9414486,22.6708054 36.8626378,23.0750757 37.0085838,23.4263189 C37.1550162,23.7770757 37.4979892,24.0057243 37.8779351,24.0057243 L44.6177189,24.0057243 C45.1382595,24.0057243 45.5605297,23.5834541 45.5605297,23.0634 M34.553773,23.0634 C34.553773,22.5433459 34.1315027,22.1210757 33.6109622,22.1210757 L29.1294486,22.1210757 L34.2146919,16.9862108 C34.481773,16.7162108 34.5610703,16.3114541 34.4146378,15.9602108 C34.2686919,15.6099405 33.9252324,15.3808054 33.5452865,15.3808054 L26.8711784,15.3808054 C26.3506378,15.3808054 25.9283676,15.8030757 25.9283676,16.3236162 C25.9283676,16.8441568 26.3501514,17.2659405 26.8711784,17.2659405 L31.2865297,17.2659405 L26.201773,22.4008054 C25.9342054,22.6708054 25.8553946,23.0750757 26.0013405,23.4263189 C26.147773,23.7770757 26.4907459,24.0057243 26.8711784,24.0057243 L33.6109622,24.0057243 C34.1310162,24.0057243 34.553773,23.5834541 34.553773,23.0634 M30.2075027,30.6292378 C26.8439351,33.8779946 22.4383135,35.644427 17.8488,35.644427 C17.0689622,35.644427 16.283773,35.5938324 15.4976108,35.4902108 C5.75571892,34.2083189 -1.12757838,25.240427 0.153340541,15.4980486 C1.43523243,5.75615676 10.4011784,-1.1286 20.1459892,0.153778378 C20.3965297,0.186859459 20.6441514,0.227724324 20.8908,0.270048649 C21.2400973,0.330859459 21.5256649,0.583345946 21.629773,0.922427027 C21.7338811,1.26150811 21.6385297,1.62977838 21.3836108,1.87642703 C19.1769081,4.00772432 17.6726919,6.64934595 16.9706919,9.58772432 L15.0373946,9.58772432 C15.6420973,6.74275135 16.911827,4.13421081 18.7755568,1.9134 C18.4525297,1.89442703 18.1309622,1.8846973 17.8108541,1.8846973 C9.93998919,1.8846973 3.07566486,7.73372432 2.02193514,15.7437243 C0.875772973,24.4557243 7.03128649,32.476427 15.743773,33.6225892 C19.9830162,34.1791297 24.1891784,33.0329676 27.5328,30.4545892 C24.5973405,29.6188054 22.0179892,28.0737243 19.9513946,26.0416703 L22.8318811,26.0416703 C24.7924216,27.5230216 27.1256108,28.572373 29.7146919,29.0238324 C30.0639892,29.0846432 30.3495568,29.3366432 30.4536649,29.6757243 C30.5582595,30.0143189 30.4629081,30.3825892 30.2075027,30.6292378" id="Fill-1" fill="currentColor" mask="url(#mask-2)"></path>
                </g>
            </g>
        </g>
    </g>
</svg>
