<svg width="0" height="0" style="position:absolute"><symbol viewBox="0 0 37 36" id="all-hacks" xmlns="http://www.w3.org/2000/svg"><defs><path id="aa" d="M0 2.485V.022h3.58v2.463z"/><path id="ac" d="M3.636.023v2.463H.056V.023h3.58z"/></defs><g fill="none" fill-rule="evenodd"><path d="M25.847 20.493l1.364 7.954a.47.47 0 01-.191.47.47.47 0 01-.507.037L19.37 25.2a2.407 2.407 0 00-2.24 0l-7.143 3.755a.47.47 0 01-.507-.037.469.469 0 01-.192-.47l1.364-7.954a2.406 2.406 0 00-.692-2.13L4.181 12.73a.469.469 0 01-.121-.493.469.469 0 01.388-.328l7.986-1.16a2.407 2.407 0 001.813-1.317l3.571-7.237a.47.47 0 01.432-.268c.09 0 .312.026.431.268l3.572 7.237a2.406 2.406 0 001.812 1.317l7.987 1.16c.267.039.36.242.388.328a.469.469 0 01-.122.493l-5.779 5.633a2.406 2.406 0 00-.692 2.13zm7.815-6.385c.661-.644.895-1.59.61-2.468a2.392 2.392 0 00-1.944-1.638l-7.986-1.16a.481.481 0 01-.362-.264l-3.572-7.236A2.392 2.392 0 0018.25 0c-.923 0-1.75.514-2.159 1.342L12.52 8.579a.482.482 0 01-.363.263l-7.986 1.16a2.392 2.392 0 00-1.943 1.638 2.392 2.392 0 00.609 2.468l5.779 5.633c.113.11.165.27.138.426L7.39 28.121a2.39 2.39 0 00.958 2.354 2.392 2.392 0 002.535.183l7.143-3.755a.481.481 0 01.448 0l7.143 3.755a2.397 2.397 0 002.535-.183 2.392 2.392 0 00.957-2.354l-1.364-7.954a.482.482 0 01.138-.426l5.78-5.633zM29.497 1.341a.963.963 0 00-1.344.213L27.13 2.961a.963.963 0 001.557 1.132l1.022-1.407a.963.963 0 00-.213-1.345M9.364 2.955L8.342 1.55a.963.963 0 00-1.558 1.13l1.022 1.407a.961.961 0 001.345.213.963.963 0 00.213-1.345" fill="currentColor"/><g transform="translate(0 20.914)"><mask id="ab" fill="#fff"><use xlink:href="#aa"/></mask><path d="M3.532.687A.963.963 0 002.32.07L.666.606a.963.963 0 10.595 1.832L2.914 1.9A.963.963 0 003.532.687" fill="currentColor" mask="url(#ab)"/></g><path d="M18.25 32.291a.963.963 0 00-.963.963v1.739a.963.963 0 001.926 0v-1.739a.963.963 0 00-.963-.963" fill="#2C2A29"/><g transform="translate(32.863 20.914)"><mask id="ad" fill="#fff"><use xlink:href="#ac"/></mask><path d="M2.97.608L1.316.07a.963.963 0 00-.595 1.832l1.654.537a.961.961 0 001.213-.618A.963.963 0 002.97.608" fill="currentColor" mask="url(#ad)"/></g></g></symbol><symbol viewBox="0 0 36 36" id="chase-hacks" xmlns="http://www.w3.org/2000/svg"><path d="M7.169 5.674l3 3 6.998-7a16.125 16.125 0 00-9.998 4zm4.174 4.174l2.741 2.741 9.777-9.776a16.234 16.234 0 00-4.41-1.073l-8.108 8.108zm3.916 3.916L18 16.506 28.686 5.82c-.997-.9-2.08-1.655-3.22-2.263L15.259 13.764zm3.917 3.917l2.741 2.741 10.21-10.211a16.153 16.153 0 00-2.266-3.216L19.176 17.681zm3.916 3.916l2.741 2.741 8.116-8.116a16.076 16.076 0 00-1.074-4.409l-9.783 9.784zm3.916 3.916l3 3a16.052 16.052 0 004.007-10.006l-7.007 7.006zM3.672 10.01l21.996 21.996a16.117 16.117 0 003.181-2.301L5.978 6.833a16.218 16.218 0 00-2.306 3.176zM1.77 15.941l17.962 17.962c1.485-.174 2.95-.55 4.35-1.133L2.905 11.593c-.577 1.38-.96 2.84-1.134 4.348zM6.4 29.28a16.125 16.125 0 0011.088 4.728L1.665 18.186A16.075 16.075 0 006.402 29.28zm11.444 6.393a17.79 17.79 0 01-12.618-5.218A17.728 17.728 0 010 17.836C0 13.07 1.856 8.59 5.227 5.22c6.957-6.958 18.279-6.958 25.236 0a17.726 17.726 0 015.227 12.617c0 4.767-1.856 9.248-5.227 12.619a17.792 17.792 0 01-12.618 5.218z" fill="currentColor" fill-rule="evenodd"/></symbol><symbol viewBox="0 0 53 20" id="food-hacks" xmlns="http://www.w3.org/2000/svg"><path d="M11.054 7.34a1.738 1.738 0 110-3.476 1.738 1.738 0 110 3.476m41.913 10.946l-2.004-8.16a.525.525 0 010-.258l1.994-8.1c.156-.647-.815-1.013-1.246-.47l-6.24 7.896h-2.415V4.98H41.44v4.214h-2.728v-5.6h-1.617v5.6h-2.732V2.571h-1.617v6.623h-2.732v-7.47h-1.617v7.47H25.67v-8.17h-1.617v8.17h-2.732V0h-1.617v9.194h-3.692V0C9.092 0 0 7.394 0 10.003 0 12.61 9.092 20 16.012 20v-9.189h3.692V20h1.617v-9.189h2.732v7.982h1.617V10.81h2.727v7.448h1.617V10.81h2.732v6.537h1.617V10.81h2.732v5.54h1.617v-5.54h2.728v4.145h1.616V10.81h2.36l6.306 7.944c.432.544 1.402.178 1.245-.469" fill="currentColor" fill-rule="evenodd"/></symbol><symbol viewBox="0 0 42 32" id="sensory-hacks" xmlns="http://www.w3.org/2000/svg"><g fill="currentColor" fill-rule="evenodd"><path d="M27.394 18.96c-2.179.907-5.341.982-8.663.982-.633 0-1.279-.004-1.92-.016.48-.737.717-1.683.717-2.869a8.69 8.69 0 00-.442-2.755 5.005 5.005 0 003.448-4.76 5.012 5.012 0 00-5.006-5.007 5 5 0 00-4.01 2.014c-.15-.57-.4-1.1-.727-1.571 2.174-1.953 4.961-3.018 7.94-3.018 6.512 0 11.81 5.213 11.81 11.622 0 2.813-.97 4.472-3.147 5.378m-17.49.99a117.82 117.82 0 00-1.14-.008c-.387 0-.767.004-1.139.007-2.26.022-4.212.04-5.068-.807-.42-.416-.624-1.098-.624-2.085a6.838 6.838 0 019.222-6.4.967.967 0 001.304-.954 3.076 3.076 0 013.069-3.234 3.076 3.076 0 013.073 3.073 3.07 3.07 0 01-2.91 3.068.967.967 0 00-.815 1.398 6.76 6.76 0 01.719 3.05c0 .986-.204 1.668-.624 2.084-.856.848-2.808.829-5.068.807m-6.3-12.124a3.077 3.077 0 013.073-3.073 3.077 3.077 0 013.03 3.591 8.71 8.71 0 00-5.537 1.254 3.068 3.068 0 01-.566-1.772m34.05 9.843h-6.036c.573-1.118.857-2.476.857-4.086C32.474 6.107 26.31.026 18.731.026c-3.507 0-6.786 1.273-9.33 3.602a4.975 4.975 0 00-2.725-.81A5.012 5.012 0 001.67 7.825c0 1.076.347 2.113.974 2.965A8.737 8.737 0 000 17.057c0 1.53.391 2.661 1.197 3.459 1.429 1.415 3.754 1.393 6.447 1.367.731-.007 5.256-.024 6.108-.172 1.578.143 3.323.164 4.979.164 3.525 0 6.898-.086 9.406-1.13a7.528 7.528 0 001.93-1.143h7.587c1.179 0 2.138.96 2.138 2.139a2.14 2.14 0 01-2.138 2.138H13.583a4.026 4.026 0 00-4.012 3.968 3.983 3.983 0 001.16 2.866 3.983 3.983 0 002.852 1.19h14.18a.967.967 0 000-1.933h-14.18c-.56 0-1.085-.22-1.478-.617a2.064 2.064 0 01-.6-1.484 2.085 2.085 0 012.078-2.056h24.07a4.077 4.077 0 004.073-4.072 4.077 4.077 0 00-4.072-4.073" mask="url(#mask-2)" transform="translate(0 .07)"/><path d="M10.247 13.461a1.305 1.305 0 110 2.61 1.305 1.305 0 010-2.61"/></g></symbol><symbol viewBox="0 0 46 36" id="sleep-hacks" xmlns="http://www.w3.org/2000/svg"><path d="M23.74 23.063a.942.942 0 00-.943-.942h-8.314l8.882-8.97a.942.942 0 00-.67-1.604H12.224a.942.942 0 100 1.884h8.212l-8.881 8.97a.942.942 0 00.669 1.605h10.574c.52 0 .942-.423.942-.943m21.82 0a.943.943 0 00-.942-.942h-4.481l5.085-5.135a.942.942 0 00-.67-1.605h-6.674a.943.943 0 000 1.885h4.415L37.21 22.4a.943.943 0 00.669 1.605h6.74c.52 0 .943-.423.943-.943m-11.007 0a.943.943 0 00-.943-.942H29.13l5.086-5.135a.943.943 0 00-.67-1.605h-6.674a.943.943 0 000 1.885h4.416L26.202 22.4a.943.943 0 00.67 1.605h6.739c.52 0 .943-.423.943-.943m-4.346 7.566c-3.364 3.249-7.77 5.015-12.36 5.015-.779 0-1.564-.05-2.35-.154C5.756 34.208-1.128 25.24.153 15.498 1.435 5.756 10.401-1.129 20.146.154c.25.033.498.074.745.116a.943.943 0 01.493 1.606 15.736 15.736 0 00-4.413 7.712h-1.934a17.549 17.549 0 013.739-7.675 16.45 16.45 0 00-.965-.028c-7.871 0-14.735 5.849-15.79 13.859-1.145 8.712 5.01 16.732 13.723 17.879 4.239.556 8.445-.59 11.789-3.168a17.71 17.71 0 01-7.582-4.413h2.88a15.916 15.916 0 006.884 2.982.942.942 0 01.493 1.605" fill="currentColor" mask="url(#mask-2)" fill-rule="evenodd"/></symbol></svg>