<svg width="0" height="0" style="position:absolute"><symbol viewBox="0 0 80.3 69.1" id="arrow-left" xmlns="http://www.w3.org/2000/svg"><path d="M1.19 32.2c-1.4 1.3-1.4 3.6 0 4.9l31.1 31.1c1.4 1.4 3.6 1.4 5 0 1.3-1.4 1.3-3.6 0-5l-25.2-25h64.9c1.5 0 3-.9 3.4-2.4.7-2.4-1-4.6-3.3-4.6h-65L37.29 6c1.4-1.4 1.4-3.6.1-5-1.4-1.4-3.7-1.4-5 0z" fill="currentColor"/></symbol><symbol viewBox="0 0 80.3 69.1" id="arrow-right" xmlns="http://www.w3.org/2000/svg"><path fill="currentColor" d="M48.3 1c-1.3-1.4-3.6-1.4-5 0-1.3 1.4-1.3 3.6.1 5l25.2 25.2h-65c-2.3 0-4 2.2-3.3 4.6.4 1.5 1.9 2.4 3.4 2.4h64.9l-25.2 25c-1.3 1.4-1.3 3.6 0 5 1.4 1.4 3.6 1.4 5 0l31.1-31.1c1.4-1.3 1.4-3.6 0-4.9L48.3 1z"/></symbol><symbol viewBox="0 0 62 48" id="birds" xmlns="http://www.w3.org/2000/svg"><g fill="currentColor"><ellipse cx="19.67" cy="6.181" rx="1.376" ry="1.377"/><path d="M47.56 33.07l.516-6.852-2.4-.182-.385 5.105-4.196-3.566-12.643.152v-2.399a10.1 10.1 0 003.22-.708 10.064 10.064 0 003.099-1.945l18.058-.614-5.163-2.514C35.912 13.52 28.326 5.292 27.494 4.37c-.77-.856-2.637-2.893-3.343-3.332a6.786 6.786 0 00-6.212-.491c-2.13.892-3.6 2.799-4.03 4.96l-3.07 2.696 3.438 1.168a6.786 6.786 0 001.428 2.19c.244.252.997.895 2.211 1.915a10.09 10.09 0 00.577 5.468 10.092 10.092 0 007.552 6.227v2.586l-12.695.152c.284-2.078-.132-4.208-1.216-6.115-1.3-2.289-3.37-3.917-5.823-4.585l-1.156-.315-.32 1.156c-.68 2.454-.337 5.065.964 7.354a10 10 0 001.943 2.442c-3.512.755-6.481 3.434-7.428 6.918L0 35.921l1.154.32a9.304 9.304 0 002.488.338c4.03 0 7.736-2.582 9.147-6.254l18.138-.218-2.461 2.602a9.373 9.373 0 00-3.405-.632c-3.776 0-7.244 2.144-8.835 5.463l-.518 1.081 1.077.524a9.33 9.33 0 004.121.941 9.963 9.963 0 005.128-1.422 10.12 10.12 0 00.063 2.179c.36 2.609 1.676 4.89 3.708 6.422l.956.722.726-.954c1.54-2.026 2.19-4.579 1.831-7.187-.308-2.235-1.32-4.228-2.88-5.717l3.844-4.062 5.942-.07L60.34 47.091l1.558-1.838L47.56 33.069zM20.73 18.05a7.693 7.693 0 01-.32-4.74l.183-.731-.88-.74c-.562-.472-2.057-1.728-2.286-1.962a4.414 4.414 0 01-1.108-1.985 4.401 4.401 0 012.549-5.123 4.375 4.375 0 014.003.309c.192.133 1.138 1.019 2.84 2.909.78.867 7.366 8.013 17.697 13.982l-9.658.329-.337.34a7.66 7.66 0 01-2.632 1.742 7.69 7.69 0 01-2.861.553 7.7 7.7 0 01-7.19-4.882zm-1.644 19.392c1.36-1.828 3.583-2.955 5.975-2.955a7.09 7.09 0 011.82.233c-1.36 1.828-3.583 2.956-5.975 2.956a7.093 7.093 0 01-1.82-.234zm11.848 2.733a7.442 7.442 0 01-.663 4.258 7.44 7.44 0 01-1.79-3.92 7.442 7.442 0 01.663-4.258 7.44 7.44 0 011.79 3.92zM6.927 20.01a7.43 7.43 0 013.115 2.974 7.44 7.44 0 01.964 4.2A7.429 7.429 0 017.89 24.21a7.44 7.44 0 01-.964-4.2zM3.642 34.169a6.97 6.97 0 01-.53-.02c1.21-2.442 3.818-4.109 6.64-4.109a7.2 7.2 0 01.53.02c-1.21 2.442-3.819 4.109-6.64 4.109z"/></g></symbol><symbol viewBox="0 0 57 45" id="carrier" xmlns="http://www.w3.org/2000/svg"><g fill="currentColor"><path d="M53.673 20.855L49.896 8.109c-.547-1.849-2.487-3.297-4.415-3.297h-9.787v-2.15A2.66 2.66 0 0033.037.005h-9.965a2.66 2.66 0 00-2.657 2.657v2.15h-9.787C8.7 4.812 6.76 6.26 6.212 8.109L2.436 20.854C1.04 21.191 0 22.473 0 24v1.754c0 1.526 1.041 2.807 2.436 3.144l3.776 12.745c.548 1.85 2.488 3.297 4.416 3.297H45.48c1.929 0 3.868-1.448 4.416-3.297l3.777-12.745c1.395-.337 2.436-1.619 2.436-3.144V24c0-1.526-1.041-2.808-2.436-3.144zM22.352 2.662a.72.72 0 01.72-.72h9.965a.72.72 0 01.72.72v2.15H22.352v-2.15zM8.069 8.66c.302-1.017 1.498-1.91 2.56-1.91H45.48c1.062 0 2.258.892 2.56 1.91l3.587 12.108H34.092a3.618 3.618 0 00-2.441-.945h-7.193c-.939 0-1.795.359-2.44.945H4.481L8.069 8.66zm14.693 17.637v-2.841c0-.935.761-1.696 1.696-1.696h7.193c.935 0 1.695.761 1.695 1.696v2.842c0 .934-.76 1.695-1.695 1.695h-7.193c-.935 0-1.696-.76-1.696-1.696zM1.937 24c0-.714.55-1.295 1.227-1.295h17.74a3.634 3.634 0 00-.078.75v2.842c0 .258.027.509.078.751H3.164c-.677 0-1.227-.58-1.227-1.294V24zm46.102 17.093c-.301 1.018-1.497 1.91-2.558 1.91H10.628c-1.061 0-2.257-.892-2.559-1.91L4.482 28.984h17.535a3.618 3.618 0 002.441.945h7.193c.938 0 1.795-.358 2.44-.945h17.536L48.04 41.092zm6.133-15.34c0 .714-.55 1.295-1.227 1.295H35.204c.052-.242.079-.493.079-.75v-2.842a3.57 3.57 0 00-.079-.751h17.741c.676 0 1.227.58 1.227 1.295v1.753z"/><path d="M27.94 31.305a.968.968 0 00-.968.969v8.43a.968.968 0 001.937 0v-8.43a.968.968 0 00-.969-.969zm-11.28.772a.968.968 0 00-1.896.393l1.747 8.43a.969.969 0 001.897-.393l-1.747-8.43zm23.933-.752a.968.968 0 00-1.145.752l-1.747 8.43a.968.968 0 001.897.394l1.746-8.43a.969.969 0 00-.751-1.146zM28.168 18.356a.968.968 0 00.969-.968v-8.43a.968.968 0 00-1.937 0v8.43c0 .534.434.968.968.968zm11.28-.772a.969.969 0 001.896-.393l-1.747-8.43a.969.969 0 00-1.896.393l1.747 8.43zm-23.932.752a.97.97 0 001.145-.752l1.747-8.43a.968.968 0 10-1.897-.393l-1.747 8.43a.968.968 0 00.752 1.145z"/></g></symbol><symbol viewBox="0 0 51 48" id="cat" xmlns="http://www.w3.org/2000/svg"><g fill="currentColor"><path d="M50.402 3.615a.89.89 0 00-.82-.101l-8.34 3.134a11.008 11.008 0 00-2.846 0l-8.332-3.134a.89.89 0 00-1.204.833v13.28h-8.9c-3.877 0-7.312 1.943-9.394 4.91H9.44a3.198 3.198 0 01-3.194-3.194c0-.03-.001-.06-.004-.088V4.066c0-1.72-1.4-3.12-3.121-3.12S0 2.345 0 4.065V19.62c0 .12.008.24.025.376.315 4.607 3.945 8.276 8.457 8.736-.006.148-.01.297-.01.446v15.566a3.099 3.099 0 003.096 3.095h1.213a3.099 3.099 0 003.095-3.095v-5.953a.915.915 0 00.002-.064c0-.759.614-1.424 1.314-1.424h.11c.713 0 1.315.627 1.315 1.369V44.9a3.099 3.099 0 003.095 3.095h1.212A3.099 3.099 0 0026.02 44.9v-7.603h3.227v7.447a3.099 3.099 0 003.095 3.095h1.213a3.099 3.099 0 003.095-3.095V38.46a.918.918 0 00.002-.064c0-.758.614-1.424 1.315-1.424h1.212c.712 0 1.314.627 1.314 1.37V44.9a3.099 3.099 0 003.095 3.095h1.213a3.099 3.099 0 003.095-3.095V24.929a10.92 10.92 0 002.89-7.393V4.347a.89.89 0 00-.384-.732zM30.64 5.633l4.84 1.82a11.031 11.031 0 00-4.84 4.083V5.633zM1.79 19.737l-.01-15.67a1.34 1.34 0 012.68 0v15.276c0 .032.002.065.005.097a4.981 4.981 0 004.974 4.878h.101a11.494 11.494 0 00-.856 2.648c-3.709-.358-6.895-3.955-6.895-7.229zm22.448 25.164c0 .725-.59 1.315-1.315 1.315h-1.212c-.725 0-1.314-.59-1.314-1.315v-6.228c0-.492-.12-.959-.332-1.375h4.173v7.603zM44.8 46.216h-1.21c-.725 0-1.315-.59-1.315-1.315v-6.559c0-1.737-1.388-3.15-3.095-3.15h-1.212c-1.654 0-3.055 1.426-3.095 3.13a.896.896 0 00-.003.076v6.347c0 .725-.59 1.314-1.314 1.314h-1.213c-.724 0-1.314-.59-1.314-1.314V31.894a.89.89 0 00-1.781 0v3.623H17.192c-1.653 0-3.054 1.431-3.094 3.136a.895.895 0 00-.003.075v6.017c0 .725-.59 1.314-1.315 1.314h-1.212c-.725 0-1.314-.59-1.314-1.314V29.18a9.78 9.78 0 016.87-9.344v3.857a.89.89 0 001.78 0v-4.225c.347-.038.7-.058 1.057-.058h1.24v6.379a.89.89 0 001.782 0v-6.38h2.298v8.517a.89.89 0 001.78 0V19.41h1.962c.898 5.147 5.399 9.073 10.8 9.073 2.34 0 4.51-.738 6.292-1.991V44.9c0 .725-.59 1.315-1.314 1.315zM39.823 26.7c-5.063 0-9.182-4.12-9.182-9.182 0-5.063 4.119-9.182 9.182-9.182 5.062 0 9.181 4.119 9.181 9.182 0 5.063-4.119 9.182-9.181 9.182zm4.341-19.248l4.84-1.82v5.903a11.031 11.031 0 00-4.84-4.083z"/><path d="M41.935 18.583H37.71a.89.89 0 000 1.781h1.222v4.033a.89.89 0 001.781 0v-4.033h1.222a.89.89 0 000-1.78z"/></g></symbol><symbol viewBox="0 0 36 36" id="chase" xmlns="http://www.w3.org/2000/svg"><path d="M7.169 5.674l3 3 6.998-7a16.125 16.125 0 00-9.998 4zm4.174 4.174l2.741 2.741 9.777-9.776a16.234 16.234 0 00-4.41-1.073l-8.108 8.108zm3.916 3.916L18 16.506 28.686 5.82c-.997-.9-2.08-1.655-3.22-2.263L15.259 13.764zm3.917 3.917l2.741 2.741 10.21-10.211a16.153 16.153 0 00-2.266-3.216L19.176 17.681zm3.916 3.916l2.741 2.741 8.116-8.116a16.076 16.076 0 00-1.074-4.409l-9.783 9.784zm3.916 3.916l3 3a16.052 16.052 0 004.007-10.006l-7.007 7.006zM3.672 10.01l21.996 21.996a16.117 16.117 0 003.181-2.301L5.978 6.833a16.218 16.218 0 00-2.306 3.176zM1.77 15.941l17.962 17.962c1.485-.174 2.95-.55 4.35-1.133L2.905 11.593c-.577 1.38-.96 2.84-1.134 4.348zM6.4 29.28a16.125 16.125 0 0011.088 4.728L1.665 18.186A16.075 16.075 0 006.402 29.28zm11.444 6.393a17.79 17.79 0 01-12.618-5.218A17.728 17.728 0 010 17.836C0 13.07 1.856 8.59 5.227 5.22c6.957-6.958 18.279-6.958 25.236 0a17.726 17.726 0 015.227 12.617c0 4.767-1.856 9.248-5.227 12.619a17.792 17.792 0 01-12.618 5.218z" fill="currentColor" fill-rule="evenodd"/></symbol><symbol viewBox="0 0 53 20" id="food" xmlns="http://www.w3.org/2000/svg"><path d="M11.054 7.34a1.738 1.738 0 110-3.476 1.738 1.738 0 110 3.476m41.913 10.946l-2.004-8.16a.525.525 0 010-.258l1.994-8.1c.156-.647-.815-1.013-1.246-.47l-6.24 7.896h-2.415V4.98H41.44v4.214h-2.728v-5.6h-1.617v5.6h-2.732V2.571h-1.617v6.623h-2.732v-7.47h-1.617v7.47H25.67v-8.17h-1.617v8.17h-2.732V0h-1.617v9.194h-3.692V0C9.092 0 0 7.394 0 10.003 0 12.61 9.092 20 16.012 20v-9.189h3.692V20h1.617v-9.189h2.732v7.982h1.617V10.81h2.727v7.448h1.617V10.81h2.732v6.537h1.617V10.81h2.732v5.54h1.617v-5.54h2.728v4.145h1.616V10.81h2.36l6.306 7.944c.432.544 1.402.178 1.245-.469" fill="currentColor" fill-rule="evenodd"/></symbol><symbol viewBox="0 0 17 14" id="icon-hamburger" xmlns="http://www.w3.org/2000/svg"><path d="M0 0h17v2.4H0V0zm0 5.8h17v2.4H0V5.8zm0 5.8h17V14H0v-2.4z" fill="currentColor" fill-rule="evenodd"/></symbol><symbol viewBox="0 0 57 48" id="lizard" xmlns="http://www.w3.org/2000/svg"><g fill="currentColor" fill-rule="nonzero"><path d="M10.665 12.468a1.25 1.25 0 00-1.255 1.246 1.25 1.25 0 001.255 1.247 1.25 1.25 0 001.254-1.247 1.25 1.25 0 00-1.254-1.246z"/><path d="M10.665 9.35c-2.422 0-4.392 1.958-4.392 4.364 0 2.407 1.97 4.364 4.392 4.364 2.421 0 4.391-1.957 4.391-4.364 0-2.406-1.97-4.363-4.391-4.363zm0 6.666a2.312 2.312 0 01-2.317-2.302 2.311 2.311 0 012.317-2.302 2.312 2.312 0 012.316 2.302 2.313 2.313 0 01-2.316 2.302zm33.534-3.631c-2.82-2.76-6.576-4.281-10.578-4.281h-2.95c-.656 0-1.186.514-1.186 1.146 0 .633.53 1.147 1.186 1.147h2.95c3.363 0 6.52 1.278 8.89 3.6a1.2 1.2 0 00.844.34c.301 0 .602-.11.833-.33a1.12 1.12 0 00.011-1.622z"/><path d="M55.27 21.523h-3.01c-.62-9.758-8.772-17.507-18.705-17.507h-4.783c-2.218 0-4.368.377-6.413 1.122V2.602A2.608 2.608 0 0019.407.024 15.191 15.191 0 009.659 5.13C4.954 5.823 0 11.486 0 16.354c0 2.24 1.003 3.949 2.573 5.17h-.586a1.19 1.19 0 00-1.191 1.188v5.61a1.19 1.19 0 001.19 1.19H14.43l-2.731 2.725a7.956 7.956 0 00-6.96 2.195 7.919 7.919 0 00-2.05 7.632c.11.412.432.733.844.842a7.955 7.955 0 007.649-2.047 7.923 7.923 0 002.2-6.942l4.417-4.406h26.27a18.467 18.467 0 01-1.902 5.681 18.64 18.64 0 01-6.49 7.063 18.826 18.826 0 01-8.855 2.891 1.188 1.188 0 10-.183 2.346c1.53.343 3.066.508 4.586.508 7.702 0 14.98-4.244 18.667-11.27a21.083 21.083 0 002.253-7.219h3.125a1.19 1.19 0 001.191-1.188v-5.611a1.19 1.19 0 00-1.19-1.189zM9.495 39.18a5.566 5.566 0 01-4.645 1.57 5.537 5.537 0 011.572-4.637 5.567 5.567 0 014.646-1.568 5.542 5.542 0 01-1.573 4.635zM18.9 27.134H3.178V23.9l15.931.007-.29 1.026a3.57 3.57 0 00.08 2.201zm14.79 0h-8.005c.03-.08.923-3.227.923-3.227H33.9l-.29 1.026a3.553 3.553 0 00.08 2.201zm6.785 0c.03-.08.924-3.227.924-3.227h2.29c.328 0 .596.267.596.595 0 0 .009 2.57.006 2.632h-3.816zm9.442-.359v.028a18.629 18.629 0 01-2.137 8.824 18.703 18.703 0 01-12.351 9.516 21.032 21.032 0 008.848-8.847 20.75 20.75 0 002.406-9.493c.001-.067-.015-2.301-.015-2.301a2.978 2.978 0 00-2.978-2.972h-1.618l.17-.603a3.592 3.592 0 00-2.13-4.32l-1.747-.676a1.19 1.19 0 00-1.548.661c-.246.609.05 1.3.662 1.545 0 0 1.802.716 1.86.729.51.265.769.852.61 1.415l-1.686 5.962a1.227 1.227 0 01-2.25.265 1.212 1.212 0 01-.109-.93L37 21.704a1.191 1.191 0 00-2.293-.645l-.133.472H27.28l.17-.603a3.591 3.591 0 00-2.128-4.32l-1.749-.676a1.188 1.188 0 10-.886 2.206s1.803.716 1.86.729c.51.265.77.852.61 1.415l-1.685 5.962a1.229 1.229 0 01-1.513.845 1.215 1.215 0 01-.736-.58 1.213 1.213 0 01-.11-.93l1.095-3.875a1.191 1.191 0 00-2.293-.645l-.133.473-9.468-.007c-6.246-.163-7.932-3.297-7.932-5.17 0-1.779.98-3.94 2.622-5.784C6.646 8.73 8.64 7.56 10.342 7.445a1.19 1.19 0 00.84-.431 12.825 12.825 0 018.504-4.63l.023-.002c.025-.003.268.097.268.22V6.93A1.189 1.189 0 0021.685 8a16.236 16.236 0 017.088-1.606h4.782c9.022 0 16.363 7.323 16.363 16.325v4.056zm4.161.36h-1.782L52.3 23.9h1.778v3.234z"/><path d="M10.665 12.468a1.25 1.25 0 00-1.255 1.246 1.25 1.25 0 001.255 1.247 1.25 1.25 0 001.254-1.247 1.25 1.25 0 00-1.254-1.246zm33.511-.277c-2.803-2.972-6.537-4.61-10.514-4.61H30.73c-.652 0-1.179.554-1.179 1.235 0 .682.527 1.235 1.179 1.235h2.932c3.342 0 6.48 1.376 8.837 3.876.23.245.534.367.838.367.299 0 .598-.119.828-.356a1.278 1.278 0 00.01-1.747z"/><path d="M44.199 12.385c-2.82-2.76-6.576-4.281-10.578-4.281h-2.95c-.656 0-1.186.514-1.186 1.146 0 .633.53 1.147 1.186 1.147h2.95c3.363 0 6.52 1.278 8.89 3.6a1.2 1.2 0 00.844.34c.301 0 .602-.11.833-.33a1.12 1.12 0 00.011-1.622zm-33.534.083a1.25 1.25 0 00-1.255 1.246 1.25 1.25 0 001.255 1.247 1.25 1.25 0 001.254-1.247 1.25 1.25 0 00-1.254-1.246z"/><path d="M10.665 12.468a1.25 1.25 0 00-1.255 1.246 1.25 1.25 0 001.255 1.247 1.25 1.25 0 001.254-1.247 1.25 1.25 0 00-1.254-1.246z"/><path d="M10.665 12.468a1.25 1.25 0 00-1.255 1.246 1.25 1.25 0 001.255 1.247 1.25 1.25 0 001.254-1.247 1.25 1.25 0 00-1.254-1.246z"/></g></symbol><symbol viewBox="0 0 44 32" id="mail" xmlns="http://www.w3.org/2000/svg"><g fill="currentColor"><path d="M34.978 24.057a.689.689 0 01-.476-.189l-8.006-7.51a.695.695 0 11.953-1.013l8.006 7.51a.695.695 0 01-.477 1.202zm-26.723 0a.696.696 0 01-.477-1.202l8.008-7.51a.696.696 0 01.953 1.013l-8.008 7.51a.689.689 0 01-.476.19z"/><path d="M39.712 31.04H3.522a3.482 3.482 0 01-3.479-3.478V3.845A3.482 3.482 0 013.522.366h36.19a3.482 3.482 0 013.479 3.479v23.717a3.482 3.482 0 01-3.479 3.478zM3.522 1.758a2.09 2.09 0 00-2.087 2.087v23.717a2.09 2.09 0 002.087 2.087h36.19a2.09 2.09 0 002.087-2.087V3.845a2.09 2.09 0 00-2.087-2.087H3.522z"/><path d="M21.617 19.199c-.925 0-1.85-.308-2.554-.921L1.198 2.694a.697.697 0 01-.068-.982.7.7 0 01.982-.067l17.865 15.582c.889.775 2.391.775 3.279 0L41.098 1.67a.696.696 0 01.916 1.049L24.17 18.277c-.705.614-1.629.922-2.554.922z"/></g></symbol><symbol viewBox="0 0 30 30" id="paw" xmlns="http://www.w3.org/2000/svg"><path d="M10.245 13.683c-2.172 0-3.938-2.372-3.938-5.286 0-2.915 1.767-5.286 3.938-5.286 2.172 0 3.939 2.37 3.939 5.286 0 2.914-1.767 5.286-3.939 5.286zm0-9.287c-1.438 0-2.653 1.832-2.653 4 0 2.169 1.215 4 2.653 4s2.653-1.831 2.653-4c0-2.168-1.215-4-2.653-4zm11.682 14.428c.094.127.188.256.267.394 1.567 2.76 1.177 5.952-.87 7.116a2.346 2.346 0 01-1.171.318c-.946 0-1.818-.575-2.74-1.183-.604-.396-1.227-.807-1.935-1.12-.1-.034-.565-.092-1.214-.092-.546 0-.879.04-.96.068-.727.301-1.381.704-2.014 1.093-.996.613-1.855 1.142-2.794 1.142a2.35 2.35 0 01-1.29-.389c-.996-.64-1.58-1.76-1.644-3.158-.06-1.315.352-2.733 1.162-3.993.078-.12.168-.231.259-.34.077-.092.15-.18.183-.247.959-1.97 3.355-4.076 7.205-4.076l.15.001c3.911.055 6.326 2.278 7.206 4.163.042.09.12.193.2.303zm-1.239 6.392c1.432-.814 1.605-3.22.388-5.362-.054-.094-.12-.18-.183-.265-.11-.15-.234-.32-.33-.524-.723-1.549-2.744-3.375-6.06-3.421l-.132-.001c-3.257 0-5.26 1.73-6.049 3.351-.101.209-.235.369-.353.51-.057.067-.115.134-.164.21-.667 1.038-1.007 2.189-.959 3.239.045.969.42 1.728 1.055 2.136.196.126.385.185.595.185.575 0 1.291-.442 2.12-.95.644-.397 1.374-.846 2.207-1.192.258-.106.742-.16 1.44-.16.477 0 1.338.026 1.734.202.807.356 1.505.816 2.121 1.222.792.52 1.474.97 2.034.97.186 0 .355-.048.536-.15zM18.62 13.683c-2.172 0-3.938-2.372-3.938-5.286 0-2.915 1.767-5.286 3.938-5.286 2.172 0 3.939 2.37 3.939 5.286 0 2.914-1.767 5.286-3.939 5.286zm0-9.287c-1.438 0-2.652 1.832-2.652 4 0 2.169 1.214 4 2.652 4 1.439 0 2.653-1.831 2.653-4 0-2.168-1.215-4-2.653-4zm6.469 6.572c1.74 0 3.103 1.806 3.103 4.11 0 2.304-1.363 4.11-3.103 4.11-1.74 0-3.103-1.806-3.103-4.11 0-2.304 1.362-4.11 3.103-4.11zm0 6.933c.985 0 1.817-1.293 1.817-2.823s-.832-2.824-1.817-2.824-1.818 1.293-1.818 2.824c0 1.53.833 2.823 1.818 2.823zM7.207 15.078c0 2.304-1.364 4.11-3.104 4.11S1 17.381 1 15.077s1.363-4.11 3.103-4.11c1.74 0 3.104 1.806 3.104 4.11zm-3.104 2.823c.986 0 1.818-1.293 1.818-2.823s-.832-2.824-1.818-2.824c-.985 0-1.817 1.293-1.817 2.824 0 1.53.832 2.823 1.817 2.823z" fill="currentColor"/></symbol><symbol viewBox="0 0 80 80" id="play" xmlns="http://www.w3.org/2000/svg"><g fill="currentColor"><path d="M60.75 38.899l-29.333-20A1.333 1.333 0 1029.333 20v40a1.332 1.332 0 002.084 1.101l29.334-20a1.333 1.333 0 000-2.202zM32 57.476V22.524L57.633 40 32 57.476z"/><path d="M40 0C17.944 0 0 17.944 0 40s17.944 40 40 40 40-17.944 40-40S62.056 0 40 0zm0 77.333C19.415 77.333 2.667 60.585 2.667 40 2.667 19.415 19.415 2.667 40 2.667c20.585 0 37.333 16.748 37.333 37.333 0 20.585-16.748 37.333-37.333 37.333z"/></g></symbol><symbol viewBox="0 0 42 32" id="sensory" xmlns="http://www.w3.org/2000/svg"><defs><path id="ma" d="M0 31.903V.026h41.726v31.877z"/></defs><g fill="none" fill-rule="evenodd"><g transform="translate(0 .07)"><mask id="mb" fill="#fff"><use xlink:href="#ma"/></mask><path d="M27.394 18.96c-2.179.907-5.341.982-8.663.982-.633 0-1.279-.004-1.92-.016.48-.737.717-1.683.717-2.869a8.69 8.69 0 00-.442-2.755 5.005 5.005 0 003.448-4.76 5.012 5.012 0 00-5.006-5.007 5 5 0 00-4.01 2.014c-.15-.57-.4-1.1-.727-1.571 2.174-1.953 4.961-3.018 7.94-3.018 6.512 0 11.81 5.213 11.81 11.622 0 2.813-.97 4.472-3.147 5.378m-17.49.99a117.82 117.82 0 00-1.14-.008c-.387 0-.767.004-1.139.007-2.26.022-4.212.04-5.068-.807-.42-.416-.624-1.098-.624-2.085a6.838 6.838 0 019.222-6.4.967.967 0 001.304-.954 3.076 3.076 0 013.069-3.234 3.076 3.076 0 013.073 3.073 3.07 3.07 0 01-2.91 3.068.967.967 0 00-.815 1.398 6.76 6.76 0 01.719 3.05c0 .986-.204 1.668-.624 2.084-.856.848-2.808.829-5.068.807m-6.3-12.124a3.077 3.077 0 013.073-3.073 3.077 3.077 0 013.03 3.591 8.71 8.71 0 00-5.537 1.254 3.068 3.068 0 01-.566-1.772m34.05 9.843h-6.036c.573-1.118.857-2.476.857-4.086C32.474 6.107 26.31.026 18.731.026c-3.507 0-6.786 1.273-9.33 3.602a4.975 4.975 0 00-2.725-.81A5.012 5.012 0 001.67 7.825c0 1.076.347 2.113.974 2.965A8.737 8.737 0 000 17.057c0 1.53.391 2.661 1.197 3.459 1.429 1.415 3.754 1.393 6.447 1.367.731-.007 5.256-.024 6.108-.172 1.578.143 3.323.164 4.979.164 3.525 0 6.898-.086 9.406-1.13a7.528 7.528 0 001.93-1.143h7.587c1.179 0 2.138.96 2.138 2.139a2.14 2.14 0 01-2.138 2.138H13.583a4.026 4.026 0 00-4.012 3.968 3.983 3.983 0 001.16 2.866 3.983 3.983 0 002.852 1.19h14.18a.967.967 0 000-1.933h-14.18c-.56 0-1.085-.22-1.478-.617a2.064 2.064 0 01-.6-1.484 2.085 2.085 0 012.078-2.056h24.07a4.077 4.077 0 004.073-4.072 4.077 4.077 0 00-4.072-4.073" fill="currentColor" mask="url(#mb)"/></g><path d="M10.247 13.461a1.305 1.305 0 110 2.61 1.305 1.305 0 010-2.61" fill="currentColor"/></g></symbol><symbol viewBox="0 0 46 36" id="sleep" xmlns="http://www.w3.org/2000/svg"><defs><path id="na" d="M0 35.644V0h45.56v35.644z"/></defs><g fill="none" fill-rule="evenodd"><mask id="nb" fill="#fff"><use xlink:href="#na"/></mask><path d="M23.74 23.063a.942.942 0 00-.943-.942h-8.314l8.882-8.97a.942.942 0 00-.67-1.604H12.224a.942.942 0 100 1.884h8.212l-8.881 8.97a.942.942 0 00.669 1.605h10.574c.52 0 .942-.423.942-.943m21.82 0a.943.943 0 00-.942-.942h-4.481l5.085-5.135a.942.942 0 00-.67-1.605h-6.674a.943.943 0 000 1.885h4.415L37.21 22.4a.943.943 0 00.669 1.605h6.74c.52 0 .943-.423.943-.943m-11.007 0a.943.943 0 00-.943-.942H29.13l5.086-5.135a.943.943 0 00-.67-1.605h-6.674a.943.943 0 000 1.885h4.416L26.202 22.4a.943.943 0 00.67 1.605h6.739c.52 0 .943-.423.943-.943m-4.346 7.566c-3.364 3.249-7.77 5.015-12.36 5.015-.779 0-1.564-.05-2.35-.154C5.756 34.208-1.128 25.24.153 15.498 1.435 5.756 10.401-1.129 20.146.154c.25.033.498.074.745.116a.943.943 0 01.493 1.606 15.736 15.736 0 00-4.413 7.712h-1.934a17.549 17.549 0 013.739-7.675 16.45 16.45 0 00-.965-.028c-7.871 0-14.735 5.849-15.79 13.859-1.145 8.712 5.01 16.732 13.723 17.879 4.239.556 8.445-.59 11.789-3.168a17.71 17.71 0 01-7.582-4.413h2.88a15.916 15.916 0 006.884 2.982.942.942 0 01.493 1.605" fill="currentColor" mask="url(#nb)"/></g></symbol></svg>