<svg width="0" height="0" style="position:absolute"><symbol viewBox="0 0 28 20" id="email" xmlns="http://www.w3.org/2000/svg"><path d="M14 14l3.5-3 9.9 8.5c-.4.3-.9.5-1.4.5H2c-.5 0-1-.2-1.4-.5l9.9-8.5 3.5 3zM27.4.5L14 12 .6.5C1 .2 1.5 0 2 0h24c.5 0 1 .2 1.4.5zM0 1.8l9.7 8.4L0 18.4V1.8zm18.3 8.4L28 1.8v16.6l-9.7-8.2z" fill="currentColor"/></symbol><symbol viewBox="0 0 13.1 28" id="facebook" xmlns="http://www.w3.org/2000/svg"><path d="M7.4 28V14H12l.7-4.6H7.4V7c0-1.2.4-2.4 2.1-2.4H13V0H8.1C4 0 2.8 2.7 2.8 6.5v2.8H0V14h2.8v14h4.6z" fill="currentColor"/></symbol><symbol viewBox="0 0 27.2 27.2" id="instagram" xmlns="http://www.w3.org/2000/svg"><g fill="currentColor"><path d="M20.2 27.2H6.9c-3.8 0-6.9-3.1-6.9-6.9V6.9C0 3.1 3.1 0 6.9 0h13.3c3.8 0 6.9 3.1 6.9 6.9v13.3c.1 3.9-3 7-6.9 7zM6.9 1.5c-3 0-5.4 2.4-5.4 5.4v13.3c0 3 2.4 5.4 5.4 5.4h13.3c3 0 5.4-2.4 5.4-5.4V6.9c0-3-2.4-5.4-5.4-5.4H6.9z"/><path d="M26.4 10.2h-9.6c-.4 0-.8-.3-.8-.8s.3-.8.8-.8h9.6c.4 0 .8.3.8.8 0 .4-.4.8-.8.8zm-16.3 0H.7c-.4 0-.8-.3-.8-.8 0-.4.3-.8.8-.8h9.4c.4 0 .8.3.8.8 0 .4-.3.8-.8.8z"/><path d="M13.6 19.6c-3.3 0-6.1-2.7-6.1-6.1s2.7-6.1 6.1-6.1c3.3 0 6.1 2.7 6.1 6.1-.1 3.4-2.8 6.1-6.1 6.1zm0-10.5c-2.5 0-4.5 2-4.5 4.5s2 4.5 4.5 4.5 4.5-2 4.5-4.5-2-4.5-4.5-4.5zm8.8-.9h-3.5c-.4 0-.8-.3-.8-.8V3.9c0-.4.3-.8.8-.8h3.5c.4 0 .8.3.8.8v3.5c-.1.4-.4.8-.8.8zm-2.8-1.6h1.9V4.7h-1.9v1.9z"/></g></symbol><symbol viewBox="0 0 28 24" id="twitter" xmlns="http://www.w3.org/2000/svg"><path d="M25.1 6.8V6c1.1-.8 2.1-1.8 2.9-3-1 .5-2.1.8-3.3.9 1.2-.7 2.1-1.9 2.5-3.3-1.1.7-2.3 1.2-3.6 1.4-1-1.2-2.5-1.9-4.2-2-3.2-.1-5.7 2.6-5.7 6 0 .5 0 .9.1 1.4C9 7.1 4.8 4.6 1.9.8c-.5.9-.7 2-.7 3.1 0 2.1 1 4 2.6 5.1-1 0-1.9-.3-2.7-.7v.1c0 3 2 5.5 4.6 6-.5.1-1 .2-1.5.2-.4 0-.7 0-1.1-.1.7 2.4 2.9 4.2 5.4 4.3-2 1.6-4.4 2.6-7.1 2.6-.5 0-.9 0-1.4-.1C2.5 23 5.5 24 8.8 24c10.6 0 16.3-9.2 16.3-17.2z" fill="currentColor"/></symbol><symbol viewBox="0 0 27.235 19.594" id="youtube" xmlns="http://www.w3.org/2000/svg"><g fill="currentColor"><path d="M27.114 5.225C26.948 2.434 24.528.128 21.718.087L17.932.031c-2.371-.034-6.25-.037-8.62-.001L5.448.088C2.634.129.234 2.439.097 5.237l-.011.226c-.116 2.379-.116 6.248 0 8.626l.011.23c.136 2.794 2.535 5.113 5.347 5.168l3.873.074c1.181.023 2.736.034 4.292.034 1.571 0 3.143-.011 4.335-.034l3.778-.074c2.808-.054 5.226-2.367 5.391-5.157l.014-.234c.141-2.381.141-6.257 0-8.639l-.013-.232zm-1.702 8.77l-.014.234c-.112 1.886-1.811 3.511-3.709 3.546l-3.778.074c-2.354.045-6.205.046-8.56 0l-3.873-.074c-1.926-.037-3.57-1.625-3.663-3.54l-.011-.23c-.114-2.332-.114-6.128 0-8.46l.011-.226c.093-1.913 1.735-3.493 3.66-3.521l3.864-.057a307.72 307.72 0 014.228-.026c1.572 0 3.148.009 4.341.027l3.785.056c1.929.028 3.591 1.611 3.706 3.529l.014.231c.137 2.325.137 6.11-.001 8.437z"/><path d="M18.183 8.767a.854.854 0 010 1.514l-6.801 3.568a.86.86 0 01-1.26-.757V5.956a.86.86 0 011.261-.758l6.8 3.569z"/></g></symbol></svg>