<?xml version="1.0" encoding="UTF-8"?>
<svg width="37px" height="36px" viewBox="0 0 37 36" version="1.1" xmlns="http://www.w3.org/2000/svg" xmlns:xlink="http://www.w3.org/1999/xlink">
    <!-- Generator: sketchtool 46.1 (44463) - http://www.bohemiancoding.com/sketch -->
    <title>874804F8-3CA0-4B6A-AA2E-643FE0B778E9</title>
    <desc>Created with sketchtool.</desc>
    <defs>
        <polygon id="path-1" points="7.35208228e-17 2.48526891 7.35208228e-17 0.0216132855 3.57977626 0.0216132855 3.57977626 2.48526891"></polygon>
        <polygon id="path-3" points="3.63557228 0.0230020853 3.63557228 2.48646653 0.0558179599 2.48646653 0.0558179599 0.0230020853 3.63557228 0.0230020853"></polygon>
    </defs>
    <g id="Styleguide" stroke="none" stroke-width="1" fill="none" fill-rule="evenodd">
        <g transform="translate(-488.000000, -2343.000000)" id="Icon-/-Filter-/-All-Hacks">
            <g transform="translate(488.000000, 2343.000000)">
                <g>
                    <path d="M25.8472087,20.4926329 L27.2114305,28.4467081 C27.2570543,28.7128943 27.0927374,28.8645933 27.0199533,28.9174883 C26.9470978,28.9702408 26.7518424,29.0798091 26.5129592,28.9540586 L19.3698463,25.198724 C19.019185,25.0144467 18.6345196,24.9222012 18.249783,24.9222012 C17.8650463,24.9222012 17.4803097,25.0144467 17.1297196,25.1986527 L9.98667802,28.953916 C9.74758099,29.0795952 9.55246812,28.9701695 9.47968396,28.9173457 C9.4068998,28.8644507 9.24251168,28.7127517 9.28820673,28.4465655 L10.6524285,20.4926329 C10.786377,19.7116824 10.527676,18.9152626 9.96015921,18.3621457 L4.18126812,12.7291081 C3.98786614,12.5404824 4.03163644,12.3211319 4.0595097,12.2355873 C4.0872404,12.1499715 4.1808404,11.9467319 4.44809584,11.9079517 L12.434179,10.7474685 C13.2182661,10.6335517 13.8958503,10.1413853 14.246583,9.43072396 L17.8181394,2.1939398 C17.9376879,1.95177743 18.1598186,1.92561505 18.2498543,1.92561505 C18.3397473,1.92561505 18.561878,1.95170614 18.6814265,2.1939398 L18.6814265,2.19401109 L22.2530543,9.43079525 C22.6037156,10.1414566 23.2812285,10.633623 24.0653156,10.7475398 L32.0515414,11.908023 C32.3187968,11.9468032 32.4123255,12.1500428 32.4400562,12.2356586 C32.4679295,12.3212745 32.5117711,12.5406962 32.3182265,12.7291794 L26.5394067,18.362217 C25.9719612,18.9152626 25.7132602,19.7116824 25.8472087,20.4926329 L25.8472087,20.4926329 Z M33.6623453,14.1078725 C34.323177,13.4636507 34.5565711,12.5181695 34.2714226,11.6404111 C33.9862028,10.7626527 33.24168,10.1349695 32.3283493,10.0023042 L24.3420523,8.84182099 C24.1852919,8.8190804 24.049775,8.72063287 23.9796285,8.57848634 L20.4080721,1.34177347 C19.9996681,0.514129901 19.1725949,7.12871287e-06 18.2496404,7.12871287e-06 C17.3266859,7.12871287e-06 16.4996127,0.514129901 16.0912087,1.34177347 L12.5196523,8.57855762 C12.4494345,8.72063287 12.3139889,8.8190804 12.1571572,8.84189228 L4.17100277,10.0023042 C3.25767208,10.1349695 2.51322059,10.7626527 2.2279295,11.6404111 C1.94263842,12.5181695 2.17603248,13.4636507 2.83700673,14.1078725 L8.61589782,19.7409101 C8.72931564,19.8515477 8.78114139,20.0108745 8.75433743,20.1670646 L7.39011564,28.1209972 C7.23413941,29.0306923 7.60098297,29.9326883 8.34764436,30.4751834 C9.09430574,31.017821 10.0658067,31.0878962 10.8826147,30.6584626 L18.0256562,26.9031992 C18.1659493,26.829417 18.3334028,26.829417 18.4737671,26.9031992 L25.61688,30.6584626 C25.972175,30.8453061 26.3566265,30.937623 26.7392246,30.9375517 C27.2360246,30.9375517 27.7298305,30.7818606 28.1516364,30.4751121 C28.8982978,29.9325457 29.2652127,29.0304784 29.1091651,28.1209259 L27.7449434,20.1669933 C27.7182107,20.0108032 27.7699651,19.8514764 27.8833117,19.7408388 L33.6623453,14.1078725 Z" id="Fill-1" fill="currentColor"></path>
                    <path d="M29.497402,1.34124594 C29.0671129,1.02872317 28.4650931,1.12410535 28.1525703,1.55425188 L27.1305267,2.9608895 C26.818004,3.39103604 26.9133149,3.99319842 27.3435327,4.30572119 C27.5145505,4.42983208 27.7125149,4.48964198 27.908697,4.48964198 C28.2064634,4.48964198 28.5000238,4.35198653 28.6882931,4.09278653 L29.7104079,2.68614891 C30.0229307,2.25593109 29.9276198,1.65376871 29.497402,1.34124594" id="Fill-3" fill="currentColor"></path>
                    <path d="M9.36425584,2.95520079 L8.34221228,1.54856317 C8.02976079,1.11855921 7.4276697,1.02317703 6.99738059,1.33555723 C6.56723406,1.64808 6.47185188,2.25024238 6.78437465,2.68038891 L7.80641822,4.08702653 C7.9948301,4.3464404 8.2883905,4.48402455 8.58622812,4.48402455 C8.78248158,4.48402455 8.98051723,4.42421465 9.15132119,4.30003248 C9.58146772,3.98758099 9.6768499,3.38541861 9.36425584,2.95520079" id="Fill-5" fill="currentColor"></path>
                    <g id="Group-9" transform="translate(0.000000, 20.914218)">
                        <mask id="mask-2" fill="white">
                            <use xlink:href="#path-1"></use>
                        </mask>
                        <g id="Clip-8"></g>
                        <path d="M3.53239129,0.687122376 C3.36807446,0.181482772 2.82493782,-0.0953251485 2.31915564,0.0689916832 L0.665508119,0.606354059 C0.159725941,0.770670891 -0.116939406,1.3139501 0.0473774257,1.8195897 C0.179543762,2.22656792 0.557009109,2.48526891 0.962846733,2.48526891 C1.06143683,2.48526891 1.16173782,2.46987089 1.26061307,2.43779168 L2.91426059,1.90042931 C3.41997149,1.73604119 3.69670812,1.19290455 3.53239129,0.687122376" id="Fill-7" fill="currentColor" mask="url(#mask-2)"></path>
                    </g>
                    <path d="M18.24984,32.2913513 C17.7181093,32.2913513 17.287036,32.7224246 17.287036,33.2541552 L17.287036,34.9929909 C17.287036,35.5247216 17.7181093,35.9557949 18.24984,35.9557949 C18.7815707,35.9557949 19.212644,35.5247216 19.212644,34.9929909 L19.212644,33.2541552 C19.212644,32.7223533 18.781642,32.2913513 18.24984,32.2913513" id="Fill-10" fill="#2C2A29"></path>
                    <g id="Group-14" transform="translate(32.863366, 20.914218)">
                        <mask id="mask-4" fill="white">
                            <use xlink:href="#path-3"></use>
                        </mask>
                        <g id="Clip-13"></g>
                        <path d="M2.97009267,0.607694257 L1.31644515,0.0703318812 C0.810876832,-0.0938423762 0.267526337,0.182751683 0.103209505,0.688605149 C-0.0611073267,1.19431604 0.21555802,1.73752396 0.721340198,1.9017695 L2.37498772,2.43913188 C2.47386297,2.47128238 2.57409267,2.48646653 2.67268277,2.48646653 C3.0785204,2.48646653 3.45605703,2.22783683 3.58822337,1.8209299 C3.7525402,1.31521901 3.47580356,0.772082376 2.97009267,0.607694257" id="Fill-12" fill="currentColor" mask="url(#mask-4)"></path>
                    </g>
                </g>
            </g>
        </g>
    </g>
</svg>
