<?xml version="1.0" encoding="UTF-8"?>
<svg width="42px" height="32px" viewBox="0 0 42 32" version="1.1" xmlns="http://www.w3.org/2000/svg" xmlns:xlink="http://www.w3.org/1999/xlink">
    <!-- Generator: sketchtool 46.1 (44463) - http://www.bohemiancoding.com/sketch -->
    <title>F78EA1F9-AFB3-443E-9FC1-901EEEE49058</title>
    <desc>Created with sketchtool.</desc>
    <defs>
        <polygon id="path-1" points="0 31.9033233 0 0.0259093656 41.7261631 0.0259093656 41.7261631 31.9033233"></polygon>
    </defs>
    <g id="Styleguide" stroke="none" stroke-width="1" fill="none" fill-rule="evenodd">
        <g transform="translate(-694.000000, -2345.000000)" id="Icon-/-Filter-/-Sensory-hacks">
            <g transform="translate(694.000000, 2345.000000)">
                <g >
                    <g id="Group-3" transform="translate(0.000000, 0.070767)">
                        <g id="Clip-2"></g>
                        <path d="M27.3935952,18.9597583 C25.2153716,19.8666828 22.0529789,19.9418006 18.7307795,19.9418006 C18.0978369,19.9418006 17.4522296,19.9382236 16.8103927,19.9263323 C17.2916495,19.1890755 17.5283142,18.2434804 17.5283142,17.0572568 C17.5283142,16.1080846 17.3797221,15.1854985 17.0856314,14.3016798 C19.0970876,13.6458248 20.5343807,11.7556979 20.5343807,9.5418006 C20.5343807,6.78129305 18.2885801,4.53549245 15.5280725,4.53549245 C13.8888218,4.53549245 12.4314199,5.32766163 11.5177281,6.54907553 C11.3673958,5.97926284 11.1185498,5.44928097 10.7912991,4.97759517 C12.9651722,3.02540181 15.7523625,1.95963746 18.7306828,1.95963746 C25.2428278,1.95963746 30.5409063,7.1734139 30.5409063,13.5819215 C30.5409063,16.3949245 29.5702719,18.0535106 27.3935952,18.9597583 M9.90312991,19.9493414 C9.5312145,19.9457644 9.15088822,19.9421873 8.76408459,19.9421873 C8.37728097,19.9421873 7.99705136,19.945861 7.62513595,19.9493414 C5.36512387,19.9710937 3.4134139,19.9896556 2.55743807,19.1418973 C2.137571,18.7260906 1.9334864,18.0442296 1.9334864,17.0572568 C1.9334864,13.2909245 4.99765559,10.2266586 8.76408459,10.2266586 C9.58554683,10.2266586 10.3901873,10.3716737 11.1554804,10.6578369 C11.4603988,10.7718187 11.8024411,10.7246405 12.0652085,10.5322538 C12.3280725,10.3397704 12.4760846,10.0279879 12.4594562,9.70267069 C12.4568459,9.64940181 12.4552991,9.59574622 12.4552991,9.54170393 C12.4552991,7.84734743 13.833716,6.46893051 15.5281692,6.46893051 C17.222429,6.46893051 18.6009426,7.84734743 18.6009426,9.54170393 C18.6009426,11.1776677 17.3226828,12.5255347 15.6907795,12.6102236 C15.3651722,12.627142 15.0698248,12.8071541 14.9056677,13.0888701 C14.7414139,13.3706828 14.7303927,13.7163021 14.8761813,14.0079758 C15.3530876,14.9615952 15.5948761,15.9875287 15.5948761,17.0571601 C15.5948761,18.0441329 15.3907915,18.725994 14.9709245,19.1418006 C14.114852,19.9896556 12.1626586,19.9708036 9.90312991,19.9493414 M3.60338369,7.8246284 C3.60338369,6.13017523 4.98199396,4.75156495 6.67644713,4.75156495 C8.37080363,4.75156495 9.74951057,6.13007855 9.74951057,7.8246284 C9.74951057,8.00019335 9.7340423,8.17314804 9.70532931,8.34320242 C9.39393353,8.30984894 9.07992749,8.29312387 8.76408459,8.29312387 C7.07997583,8.29312387 5.50578852,8.77099698 4.16874924,9.59767976 C3.80476133,9.08364955 3.60338369,8.46578852 3.60338369,7.8246284 M37.6538006,17.6680604 L31.6172085,17.6680604 C32.1904048,16.5495106 32.4744411,15.1918792 32.4744411,13.5817281 C32.4744411,6.10706949 26.3089789,0.0259093656 18.7306828,0.0259093656 C15.2244109,0.0259093656 11.9448459,1.29933535 9.40166767,3.62808459 C8.61674924,3.11656798 7.68111178,2.81803021 6.67644713,2.81803021 C3.91574622,2.81803021 1.66984894,5.06392749 1.66984894,7.8246284 C1.66984894,8.90131722 2.01701511,9.93807855 2.64435045,10.790284 C1.01389728,12.3826465 -4.83383686e-05,14.6036012 -4.83383686e-05,17.0572568 C-4.83383686e-05,18.5867795 0.39139577,19.717994 1.19671299,20.5156737 C2.62559517,21.9308278 4.95086405,21.9086888 7.64350453,21.8827795 C8.37525076,21.8758187 12.9003021,21.8591903 13.7524109,21.7112749 C15.3300785,21.8541631 17.0746103,21.8753353 18.7306828,21.8753353 C22.2564834,21.8753353 25.628858,21.7888097 28.1367492,20.7447976 C28.8761329,20.4369789 29.5188399,20.0564592 30.066997,19.6016918 L37.6538006,19.6016918 C38.8329668,19.6016918 39.7924834,20.5612085 39.7924834,21.740568 C39.7924834,22.9199275 38.8329668,23.8794441 37.6538006,23.8794441 L13.5825498,23.8794441 C11.3944653,23.8794441 9.59492447,25.6593595 9.57085196,27.8472508 C9.55886405,28.9271299 9.97061027,29.9447492 10.7301994,30.7126526 C11.4895952,31.4804592 12.502574,31.9033233 13.5825498,31.9033233 L27.7622236,31.9033233 C28.2960725,31.9033233 28.7289909,31.4705015 28.7289909,30.9365559 C28.7289909,30.4026103 28.2960725,29.9697885 27.7622236,29.9697885 L13.5825498,29.9697885 C13.0229849,29.9697885 12.4982236,29.750719 12.1047492,29.3529909 C11.7113716,28.9551662 11.4981027,28.4280846 11.50429,27.8686163 C11.5166647,26.7351782 12.4490151,25.8130755 13.5825498,25.8130755 L37.6538973,25.8130755 C39.8993112,25.8130755 41.7262115,23.9862719 41.7262115,21.7406647 C41.7262115,19.4950574 39.8992145,17.6680604 37.6538006,17.6680604" id="Fill-1" fill="currentColor" mask="url(#mask-2)"></path>
                    </g>
                    <path d="M10.2472604,13.4612689 C10.9679855,13.4612689 11.5522997,14.0454864 11.5522997,14.7663082 C11.5522997,15.4870332 10.9679855,16.0713474 10.2472604,16.0713474 C9.52643867,16.0713474 8.94222115,15.4870332 8.94222115,14.7663082 C8.94222115,14.0454864 9.52643867,13.4612689 10.2472604,13.4612689" id="Fill-4" fill="currentColor"></path>
                </g>
            </g>
        </g>
    </g>
</svg>
