<?xml version="1.0" encoding="UTF-8"?>
<svg width="275px" height="45px" viewBox="0 0 275 45" version="1.1" xmlns="http://www.w3.org/2000/svg" xmlns:xlink="http://www.w3.org/1999/xlink">
    <!-- Generator: sketchtool 47.1 (45422) - http://www.bohemiancoding.com/sketch -->
    <title>1D921B64-8D84-40E4-9E30-09B8329888D1</title>
    <desc>Created with sketchtool.</desc>
    <defs></defs>
    <g id="Symbols" stroke="none" stroke-width="1" fill="none" fill-rule="evenodd">
        <g id="Global-/-Footer" transform="translate(-330.000000, -30.000000)">
            <g id="ZV_RSPCA_Vic_Logos-01">
                <g transform="translate(330.000000, 30.000000)">
                    <polyline id="Fill-1" fill="#FFFFFF" points="11.9790911 8.84559081 2.81418625 8.84559081 2.81418625 1.01721146 26.9724027 1.01721146 15.5678546 19.2095901 25.6873675 19.2095901 25.6873675 27.2957915 0.247079403 27.2957915 11.9790911 8.84559081"></polyline>
                    <path d="M69.4370914,19.1732876 C66.8718367,19.1732876 65.0033682,17.2651826 65.0033682,14.2116961 C65.0033682,11.1596913 66.8718367,9.21417253 69.4370914,9.21417253 C72.00568,9.21417253 73.8371051,11.1596913 73.8371051,14.2116961 C73.8371051,17.2651826 72.00568,19.1732876 69.4370914,19.1732876 M69.4370914,0.430444178 C61.2016052,0.430444178 55.4335791,6.60113188 55.4335791,14.2120665 C55.4335791,21.8226308 61.2016052,27.9936889 69.4370914,27.9936889 C77.672948,27.9936889 83.4409741,21.8226308 83.4409741,14.2120665 C83.4409741,6.60113188 77.672948,0.430444178 69.4370914,0.430444178" id="Fill-2" fill="#FFFFFF"></path>
                    <path d="M39.4701012,19.1732876 C36.9048465,19.1732876 35.036378,17.2651826 35.036378,14.2116961 C35.036378,11.1596913 36.9048465,9.21417253 39.4701012,9.21417253 C42.0386898,9.21417253 43.8697445,11.1596913 43.8697445,14.2116961 C43.8697445,17.2651826 42.0386898,19.1732876 39.4701012,19.1732876 M39.4701012,0.430444178 C31.2342446,0.430444178 25.4665889,6.60113188 25.4665889,14.2120665 C25.4665889,21.8226308 31.2342446,27.9936889 39.4701012,27.9936889 C47.7059578,27.9936889 53.4739839,21.8226308 53.4739839,14.2120665 C53.4739839,6.60113188 47.7059578,0.430444178 39.4701012,0.430444178" id="Fill-3" fill="#FFFFFF"></path>
                    <path d="M86.6289281,17.7048877 C89.1578803,19.4322209 91.2115658,20.4212794 93.1926462,20.4212794 C94.5465821,20.4212794 95.2785594,19.9093397 95.2785594,19.0636392 C95.2785594,17.8508386 93.9624078,17.7048877 91.7975922,17.2248054 C87.3264552,16.2727903 85.0542137,13.8082936 85.0542137,9.98393415 C85.0542137,4.47335963 89.3397633,0.430814612 96.0142411,0.430814612 C99.0188304,0.430814612 101.840425,1.20168753 104.84983,2.81900189 L101.98971,9.69388441 C100.155322,8.33216944 98.2479575,7.63279026 96.6021197,7.63279026 C95.2785594,7.63279026 94.5465821,8.11102041 94.5465821,8.88300463 C94.5465821,10.1695215 96.3079952,10.3536272 99.4233442,11.0526359 C102.909868,11.8235088 105.252492,14.4324747 105.252492,18.106438 C105.252492,23.7314766 100.780244,27.9933185 93.9246236,27.9933185 C90.4788475,27.9933185 86.9952873,27.00426 83.6232276,25.0520734 L86.6289281,17.7048877" id="Fill-4" fill="#FFFFFF"></path>
                    <path d="M71.9934557,35.6487052 L70.9088252,35.6487052 L70.9088252,37.0652444 L71.9649323,37.0652444 C72.5479952,37.0652444 72.7806277,36.8063111 72.7806277,36.3428983 C72.7806277,35.9357915 72.5568856,35.6487052 71.9934557,35.6487052" id="Fill-5" fill="#FFFFFF"></path>
                    <path d="M94.8388544,36.0554416 C94.7558772,36.4907014 94.6536375,36.8526153 94.4224867,37.6760899 L94.3024661,38.1028297 L95.3767244,38.1028297 L95.2555925,37.6760899 C95.0240713,36.8429841 94.9225725,36.4907014 94.8388544,36.0554416" id="Fill-6" fill="#FFFFFF"></path>
                    <path d="M58.6007889,35.6487052 C57.8799245,35.6487052 57.471336,36.2499194 57.471336,37.417527 C57.471336,38.5843938 57.8980758,39.2045001 58.6200514,39.2045001 C59.342768,39.2045001 59.7495044,38.6021746 59.7495044,37.4360487 C59.7495044,36.269182 59.3238758,35.6487052 58.6007889,35.6487052" id="Fill-7" fill="#FFFFFF"></path>
                    <path d="M96.163526,40.6677139 L95.8112434,39.5282593 L93.8664654,39.5282593 L93.5149237,40.6677139 L91.588297,40.6677139 L93.9405522,34.1851209 L95.7564191,34.1851209 L98.1079335,40.6677139 L96.163526,40.6677139 Z M82.2992969,40.6677139 L84.1325742,40.6677139 L84.1325742,34.1851209 L82.2992969,34.1851209 L82.2992969,40.6677139 Z M72.6880192,40.6677139 L71.6322826,38.482154 L70.9088252,38.482154 L70.9088252,40.6677139 L69.1411147,40.6677139 L69.1411147,34.1851209 L72.0397599,34.1851209 C73.5589093,34.1851209 74.5672303,34.7585526 74.5672303,36.2962236 C74.5672303,37.2686126 74.1141897,37.8709381 73.400734,38.1954382 L74.697623,40.6677139 L72.6880192,40.6677139 Z M58.6007889,40.7695833 C56.8415984,40.7695833 55.6095352,39.5938261 55.6095352,37.4360487 C55.6095352,35.2782713 56.8597496,34.0828812 58.619681,34.0828812 C60.3799829,34.0828812 61.6116755,35.2593792 61.6116755,37.417527 C61.6116755,39.5741931 60.3607203,40.7695833 58.6007889,40.7695833 L58.6007889,40.7695833 Z M48.6646407,35.7498336 L46.8498851,35.7498336 L46.8498851,40.6677139 L45.0529103,40.6677139 L45.0529103,35.7498336 L43.2381547,35.7498336 L43.2381547,34.1851209 L48.6646407,34.1851209 L48.6646407,35.7498336 Z M33.4861122,40.7695833 C31.5602264,40.7695833 30.5319019,39.3441537 30.5319019,37.4271583 C30.5319019,35.3434677 31.7543337,34.0828812 33.4950026,34.0828812 C35.0878683,34.0828812 35.7179763,34.7689247 36.162497,35.9909861 L34.5325879,36.6296141 C34.3014371,36.0280295 34.0784359,35.6487052 33.4861122,35.6487052 C32.7359835,35.6487052 32.4114835,36.3977225 32.4114835,37.4271583 C32.4114835,38.4165872 32.7263523,39.2045001 33.5042634,39.2045001 C34.0695455,39.2045001 34.3103276,38.8985217 34.6622398,38.2880466 L36.1810187,39.0933699 C35.7453884,39.9449974 35.0230424,40.7695833 33.4861122,40.7695833 L33.4861122,40.7695833 Z M21.1228812,40.6677139 L22.9565289,40.6677139 L22.9565289,34.1851209 L21.1228812,34.1851209 L21.1228812,40.6677139 Z M11.4364054,40.6677139 L9.62127937,40.6677139 L7.38941519,34.1851209 L9.40827988,34.1851209 L9.88058309,35.9265306 C10.1028434,36.731113 10.4173418,38.0472646 10.5381032,38.6666301 C10.6588647,38.0472646 10.9733631,36.7418556 11.1956234,35.9265306 L11.6679266,34.1851209 L13.6682696,34.1851209 L11.4364054,40.6677139 Z M0.247079403,43.9286435 L105.252492,43.9286435 L105.252492,30.8034299 L0.247079403,30.8034299 L0.247079403,43.9286435 Z" id="Fill-8" fill="#FFFFFF"></path>
                    <path d="M114.795918,45 L114.795918,0.918367347" id="Stroke-9" stroke="#666A75"></path>
                    <polyline id="Fill-10" fill="#FFFFFF" points="127.451854 41.7419722 129.549991 36.1302693 130.438292 36.1302693 127.451854 43.9286435 124.465786 36.1302693 125.354087 36.1302693 127.451854 41.7419722"></polyline>
                    <path d="M132.138213,37.1741519 C132.138213,37.4871686 131.884466,37.7301732 131.581821,37.7301732 C131.280288,37.7301732 131.0258,37.4871686 131.0258,37.1741519 C131.0258,36.8718779 131.280288,36.6181307 131.581821,36.6181307 C131.884466,36.6181307 132.138213,36.8718779 132.138213,37.1741519 L132.138213,37.1741519 Z M131.191384,43.4893089 L131.972629,43.4893089 L131.972629,38.9018556 L131.191384,38.9018556 L131.191384,43.4893089 Z" id="Fill-11" fill="#FFFFFF"></path>
                    <path d="M137.007566,40.2680158 L136.989045,40.2680158 C136.627131,39.8094186 136.178165,39.4967724 135.563986,39.4967724 C134.617157,39.4967724 133.944449,40.2780175 133.944449,41.1948414 C133.944449,42.1027748 134.569,42.8932807 135.52509,42.8932807 C136.178165,42.8932807 136.637503,42.5995267 137.017568,42.1027748 L137.037201,42.1027748 L137.037201,43.1473984 C136.588235,43.449302 136.129268,43.6156268 135.583248,43.6156268 C134.197085,43.6156268 133.143941,42.581005 133.143941,41.1948414 C133.143941,39.8290516 134.245982,38.7751672 135.59362,38.7751672 C136.090372,38.7751672 136.597496,38.9407512 137.007566,39.2330235 L137.007566,40.2680158" id="Fill-12" fill="#FFFFFF"></path>
                    <polyline id="Fill-13" fill="#FFFFFF" points="139.067549 43.4893089 138.286304 43.4893089 138.286304 39.6249425 137.808074 39.6249425 137.808074 38.9018556 138.286304 38.9018556 138.286304 37.2530544 139.067549 37.2530544 139.067549 38.9018556 139.887319 38.9018556 139.887319 39.6249425 139.067549 39.6249425 139.067549 43.4893089"></polyline>
                    <path d="M140.179592,41.2041022 C140.179592,39.8586863 141.243108,38.7751672 142.590376,38.7751672 C143.936903,38.7751672 145.001159,39.8586863 145.001159,41.2041022 C145.001159,42.5513703 143.927642,43.6156268 142.590376,43.6156268 C141.253109,43.6156268 140.179592,42.5513703 140.179592,41.2041022 M140.960837,41.1948414 C140.960837,42.1324095 141.623543,42.8936512 142.590376,42.8936512 C143.556467,42.8936512 144.219914,42.1324095 144.219914,41.1948414 C144.219914,40.2687566 143.556467,39.4978837 142.590376,39.4978837 C141.623543,39.4978837 140.960837,40.2687566 140.960837,41.1948414" id="Fill-14" fill="#FFFFFF"></path>
                    <path d="M146.815915,39.3997187 L146.835177,39.3997187 C147.108187,39.0389161 147.342301,38.7751672 147.849425,38.7751672 C148.113915,38.7751672 148.327656,38.8633305 148.552509,38.9896484 L148.182446,39.7034745 C148.026122,39.5941965 147.918697,39.4967724 147.713476,39.4967724 C146.85444,39.4967724 146.815915,40.5999245 146.815915,41.1948414 L146.815915,43.4893089 L146.03467,43.4893089 L146.03467,38.9018556 L146.815915,38.9018556 L146.815915,39.3997187" id="Fill-15" fill="#FFFFFF"></path>
                    <path d="M150.436536,37.1741519 C150.436536,37.4871686 150.182048,37.7301732 149.879774,37.7301732 C149.57787,37.7301732 149.323382,37.4871686 149.323382,37.1741519 C149.323382,36.8718779 149.57787,36.6181307 149.879774,36.6181307 C150.182048,36.6181307 150.436536,36.8718779 150.436536,37.1741519 L150.436536,37.1741519 Z M149.488966,43.4893089 L150.269841,43.4893089 L150.269841,38.9018556 L149.488966,38.9018556 L149.488966,43.4893089 Z" id="Fill-16" fill="#FFFFFF"></path>
                    <g id="Group-20" transform="translate(151.507460, 17.780827)" fill="#FFFFFF">
                        <path d="M4.57856285,25.7084823 L3.79842909,25.7084823 L3.79842909,25.0742994 L3.77916652,25.0742994 C3.37835706,25.5814234 2.84159835,25.8348002 2.19778426,25.8348002 C0.851257074,25.8348002 0.00185216944,24.693123 0.00185216944,23.4243869 C0.00185216944,22.1163848 0.83088321,20.9954519 2.2070451,20.9954519 C2.83159664,20.9954519 3.39799005,21.2877242 3.77916652,21.7752152 L3.79842909,21.7752152 L3.79842909,21.121029 L4.57856285,21.121029 L4.57856285,25.7084823 Z M0.802359801,23.3662288 C0.802359801,24.2637901 1.32948722,25.1113428 2.30595095,25.1113428 C3.31019722,25.1113428 3.83769508,24.3026856 3.83769508,23.3754896 C3.83769508,22.4575545 3.26167038,21.7152049 2.29483794,21.7152049 C1.38912708,21.7152049 0.802359801,22.5071926 0.802359801,23.3662288 L0.802359801,23.3662288 Z" id="Fill-17"></path>
                        <path d="M123.167786,1.45210084 C122.936635,0.626403704 122.522861,0.075938947 121.340065,0.0722346081 C118.661828,0.065937232 115.980998,1.66991597 115.323478,2.07665238 C113.781362,3.02607443 113.101616,6.05214886 116.169919,6.43814097 C118.464757,6.72782027 120.957777,5.35721489 121.656416,4.897136 C122.092787,4.61116104 123.651573,3.16980278 123.167786,1.45210084" id="Fill-19"></path>
                    </g>
                    <path d="M263.691511,14.1276076 C264.05824,12.6217939 262.705416,10.7114663 260.82213,11.9501972 C257.132608,14.3757983 257.477853,16.6195164 257.448218,16.9762442 C257.361907,17.957894 259.180737,20.675397 261.15552,18.7350643 C263.061773,16.8614097 263.691511,14.1276076 263.691511,14.1276076" id="Fill-21" fill="#FFFFFF"></path>
                    <path d="M271.60509,15.9616258 C273.564685,13.9164603 271.806606,11.4478889 269.293953,11.971312 C265.711857,12.7173658 263.745594,15.7941897 263.518889,16.4998662 C263.20402,17.4826273 263.391089,19.546685 266.20046,19.0262253 C268.131161,18.6687566 270.474526,17.1407169 271.60509,15.9616258" id="Fill-22" fill="#FFFFFF"></path>
                    <path d="M269.955548,28.8097548 C270.353394,28.6504682 271.283924,28.0507357 271.252437,27.2013308 C271.242065,26.8846098 271.225395,26.088177 270.146321,25.5428983 C267.472159,24.1974824 265.49182,24.8824147 264.848746,24.9916927 C264.131216,25.1117133 263.15327,25.9407443 263.184387,26.8901664 C263.209947,27.6269594 263.885989,28.3689384 264.444233,28.7430767 C265.617397,29.53136 267.190629,29.3676282 267.616258,29.3831864 C268.391946,29.4113394 269.955548,28.8097548 269.955548,28.8097548" id="Fill-23" fill="#FFFFFF"></path>
                    <path d="M260.899921,20.333857 C260.477997,20.2905162 257.570091,19.9323066 255.477139,20.3294118 C255.337486,20.3557126 252.724075,21.1388098 254.022446,23.9985594 C255.424538,27.0883485 257.113346,28.2781821 257.391542,28.4545087 C257.67196,28.628983 259.035527,29.575812 260.344641,28.2281736 C261.816004,26.7127285 262.94768,24.846853 263.289961,23.7633339 C263.615202,22.737232 263.875987,20.6402058 260.899921,20.333857" id="Fill-24" fill="#FFFFFF"></path>
                    <path d="M241.998902,26.8127457 C242.658645,26.8127457 243.184291,27.3495044 243.184291,28.0199897 C243.184291,28.7012176 242.658645,29.2335311 241.993346,29.2335311 C241.333603,29.2335311 240.796474,28.7012176 240.796474,28.0199897 C240.796474,27.3495044 241.333603,26.8127457 241.993346,26.8127457 L241.998902,26.8127457 Z M241.993346,27.0005557 C241.462144,27.0005557 241.028366,27.4565598 241.028366,28.0199897 C241.028366,28.5949031 241.462144,29.0446098 241.998902,29.0446098 C242.535661,29.0501664 242.964994,28.5949031 242.964994,28.0255462 C242.964994,27.4565598 242.535661,27.0005557 241.998902,27.0005557 L241.993346,27.0005557 Z M241.768493,28.7238141 L241.554011,28.7238141 L241.554011,27.3750643 C241.666623,27.3606174 241.774419,27.3446887 241.935188,27.3446887 C242.138556,27.3446887 242.272653,27.3872886 242.352296,27.4454468 C242.433051,27.5047162 242.476392,27.5973246 242.476392,27.7247539 C242.476392,27.9025622 242.358223,28.009988 242.213384,28.0525879 L242.213384,28.0637009 C242.331922,28.0840748 242.411566,28.1915006 242.438607,28.3915349 C242.470835,28.6004596 242.504545,28.6801029 242.525289,28.7238141 L242.299695,28.7238141 C242.266356,28.6801029 242.234869,28.5560075 242.209309,28.3804219 C242.175599,28.2081701 242.09077,28.1433442 241.918518,28.1433442 L241.768493,28.1433442 L241.768493,28.7238141 Z M241.768493,27.9777602 L241.924075,27.9777602 C242.100772,27.9777602 242.251909,27.9140456 242.251909,27.7462391 C242.251909,27.6288115 242.165598,27.5102727 241.924075,27.5102727 C241.854433,27.5102727 241.805536,27.5161996 241.768493,27.5217561 L241.768493,27.9777602 L241.768493,27.9777602 Z" id="Fill-25" fill="#FFFFFF"></path>
                    <path d="M241.25396,5.76209913 C240.822034,4.2740662 238.697966,3.28945292 237.681866,5.30016807 C235.68782,9.24047333 237.104359,11.0152221 237.254385,11.3393517 C237.668901,12.2332087 240.599033,13.6864209 241.346939,11.0200377 C242.068174,8.44737438 241.25396,5.76209913 241.25396,5.76209913" id="Fill-26" fill="#FFFFFF"></path>
                    <g id="Group-30" transform="translate(236.336820, 0.000000)" fill="#FFFFFF">
                        <path d="M5.58354999,12.5343715 C5.19570571,12.7069937 2.4956131,13.8423735 0.877187446,15.2285371 C0.768650317,15.3218865 -1.10796776,17.3011147 1.44061739,19.1358738 C4.19553421,21.1180655 6.25144229,21.3103207 6.58112845,21.3236563 C6.91118505,21.3366215 8.56517235,21.4788681 9.02969645,19.6592969 C9.55237867,17.6130201 9.60498028,15.4304236 9.36345738,14.3191219 C9.13415881,13.268201 8.31698165,11.3189779 5.58354999,12.5343715" id="Fill-27"></path>
                        <path d="M12.6932876,3.41577088 C13.3767381,0.666410564 10.6218213,-0.600473332 8.70371463,1.10352255 C5.9673195,3.53319842 5.79321557,7.18012005 5.94805694,7.9043183 C6.16253816,8.91523238 7.35274224,10.6114492 9.5308935,8.76224318 C11.0278168,7.49202538 12.2987755,5.00085749 12.6932876,3.41577088" id="Fill-29"></path>
                    </g>
                    <path d="M253.37715,4.83453267 C252.781122,4.21887155 252.15657,3.93067398 251.113799,4.48965872 C248.754135,5.75357915 247.157935,8.43959527 246.771202,9.11045104 C245.865862,10.6784977 246.704524,13.663454 249.587981,12.5465958 C251.746129,11.7112674 253.287505,9.32048705 253.68498,8.58443492 C253.931689,8.1250969 254.619215,6.11697479 253.37715,4.83453267" id="Fill-31" fill="#FFFFFF"></path>
                    <path d="M253.902055,15.5267364 C254.168397,15.1903824 254.675891,14.2076213 254.228036,13.4852753 C254.059859,13.2163403 253.65053,12.5332602 252.442915,12.5980861 C249.453884,12.7607066 248.076611,14.341348 247.572821,14.7554931 C247.010873,15.2155719 246.574131,16.422816 247.073476,17.2303619 C247.462061,17.8575064 248.420003,18.1645961 249.088266,18.2112708 C250.497767,18.3109175 251.782061,17.386685 252.158793,17.187762 C252.845207,16.8258481 253.902055,15.5267364 253.902055,15.5267364" id="Fill-32" fill="#FFFFFF"></path>
                    <path d="M124.465786,8.33550334 L135.088348,8.33550334 C140.544099,8.33550334 145.165632,10.6466404 145.165632,16.7443526 C145.165632,20.4034985 143.753538,21.9433922 140.479643,23.0354313 L140.479643,23.2276865 C140.92935,23.5803396 141.47537,23.9652204 141.956563,24.6723787 L147.220058,32.5344675 L137.077949,32.5344675 L133.227289,24.7675802 L133.067261,24.7675802 L133.067261,32.5344675 L124.465786,32.5344675 L124.465786,8.33550334 Z M133.067261,19.0547488 L133.676255,19.0547488 C135.120576,19.0547488 136.564157,18.8302658 136.564157,17.0336615 C136.564157,15.1718607 135.249117,14.9470074 133.74108,14.9470074 L133.067261,14.9470074 L133.067261,19.0547488 L133.067261,19.0547488 Z" id="Fill-33" fill="#FFFFFF"></path>
                    <path d="M150.204274,23.8689076 L150.65324,24.2223015 C152.226472,25.4413994 154.11976,26.4367553 156.140847,26.4367553 C157.008033,26.4367553 158.387529,26.0833613 158.387529,24.9935448 C158.387529,23.9015057 157.232886,23.8051929 156.429415,23.6440542 L154.665779,23.3239993 C151.231487,22.7142651 148.342473,20.692437 148.342473,16.9047505 C148.342473,11.1604322 153.57374,7.95062253 158.837235,7.95062253 C161.596968,7.95062253 164.133329,8.62407134 166.50781,10.0683931 L164.133329,16.2627885 C162.623811,15.2355754 160.923149,14.4332156 159.029861,14.4332156 C158.260099,14.4332156 157.135462,14.722154 157.135462,15.7175099 C157.135462,16.6161825 158.227501,16.7443526 158.901321,16.9047505 L160.891662,17.3540868 C164.614522,18.1883039 167.31017,20.1786452 167.31017,24.2863866 C167.31017,30.0629326 162.046304,32.9200892 156.815407,32.9200892 C153.766366,32.9200892 150.236872,32.0855016 147.508997,30.7048945 L150.204274,23.8689076" id="Fill-34" fill="#FFFFFF"></path>
                    <path d="M170.038045,8.33550334 L181.174399,8.33550334 C186.822775,8.33550334 190.994231,11.2241468 190.994231,17.2262871 C190.994231,22.168616 187.914073,25.2487738 183.003601,25.2487738 L178.510238,25.2487738 L178.510238,32.5344675 L170.038045,32.5344675 L170.038045,8.33550334 Z M178.510238,19.151432 L179.377424,19.151432 C180.916947,19.151432 182.585382,18.8947213 182.585382,16.9369782 C182.585382,15.0436906 180.789518,14.9470074 179.344826,14.9470074 L178.510238,14.9470074 L178.510238,19.151432 L178.510238,19.151432 Z" id="Fill-35" fill="#FFFFFF"></path>
                    <path d="M211.342164,18.1560761 C209.9297,16.8410358 208.164953,15.7175099 206.174241,15.7175099 C203.54342,15.7175099 201.393051,17.804164 201.393051,20.4353559 C201.393051,23.0991459 203.671219,25.152461 206.304263,25.152461 C208.32498,25.152461 209.9297,24.2863866 211.342164,22.9068908 L211.085454,31.9569611 C209.67336,32.6315212 206.399465,32.9200892 204.826232,32.9200892 C197.927271,32.9200892 192.535236,27.5602813 192.535236,20.6598388 C192.535236,13.5989985 198.087299,7.95062253 205.179997,7.95062253 C207.170338,7.95062253 209.223653,8.30290516 211.085454,8.94597839 L211.342164,18.1560761" id="Fill-36" fill="#FFFFFF"></path>
                    <path d="M221.579475,32.5344675 L212.271953,32.5344675 L220.681173,8.33550334 L230.404692,8.33550334 L239.037654,32.5344675 L229.731243,32.5344675 L228.928884,29.5183948 L222.285522,29.5183948 L221.579475,32.5344675 Z M227.388249,23.7725948 L226.360665,19.5048259 C226.105436,18.4776128 225.944298,17.4181718 225.78427,16.39207 L225.461993,16.39207 L223.858755,23.7725948 L227.388249,23.7725948 L227.388249,23.7725948 Z" id="Fill-37" fill="#FFFFFF"></path>
                </g>
            </g>
        </g>
    </g>
</svg>