<?xml version="1.0" encoding="UTF-8"?>
<svg width="297px" height="49px" viewBox="0 0 297 49" version="1.1" xmlns="http://www.w3.org/2000/svg" xmlns:xlink="http://www.w3.org/1999/xlink">
    <!-- Generator: sketchtool 47.1 (45422) - http://www.bohemiancoding.com/sketch -->
    <title>4347D3A4-D738-429B-87F2-3BC9E3A97E89</title>
    <desc>Created with sketchtool.</desc>
    <defs>
        <polygon id="path-1" points="0.297193423 0.1444 14.0082956 0.1444 14.0082956 22.8347282 0.297193423 22.8347282 0.297193423 0.1444"></polygon>
    </defs>
    <g id="Symbols" stroke="none" stroke-width="1" fill="none" fill-rule="evenodd">
        <g id="Navigation-/-Desktop" transform="translate(-331.000000, -26.000000)">
            <g id="Navigation---default">
                <g id="ZV_RSPCA_Logo" transform="translate(331.000000, 26.000000)">
                    <g id="zoos" transform="translate(0.000000, 1.000000)">
                        <polygon id="Fill-1" fill="#000000" points="0.3612 47.3264 113.7476 47.3264 113.7476 33.1532 0.3612 33.1532"></polygon>
                        <path d="M12.4436,43.8052 L10.484,43.8052 L8.0736,36.8052 L10.2536,36.8052 L10.7636,38.6856 C11.0036,39.5544 11.3436,40.9756 11.4736,41.6444 C11.604,40.9756 11.9436,39.566 12.1836,38.6856 L12.6936,36.8052 L14.8536,36.8052 L12.4436,43.8052" id="Fill-2" fill="#FFFFFE"></path>
                        <polygon id="Fill-3" fill="#FFFFFE" points="22.9036 43.8052 24.8836 43.8052 24.8836 36.8052 22.9036 36.8052"></polygon>
                        <path d="M36.2532,43.9152 C34.1732,43.9152 33.0632,42.376 33.0632,40.3056 C33.0632,38.0556 34.3828,36.6948 36.2628,36.6948 C37.9828,36.6948 38.6628,37.4356 39.1432,38.7552 L37.3828,39.4448 C37.1336,38.7952 36.8928,38.3856 36.2532,38.3856 C35.4432,38.3856 35.0928,39.1944 35.0928,40.3056 C35.0928,41.3744 35.4328,42.2252 36.2728,42.2252 C36.8832,42.2252 37.1432,41.8948 37.5232,41.2356 L39.1632,42.1052 C38.6928,43.0248 37.9128,43.9152 36.2532,43.9152" id="Fill-4" fill="#FFFFFE"></path>
                        <polyline id="Fill-5" fill="#FFFFFE" points="50.6836 38.4948 50.6836 43.8052 48.7432 43.8052 48.7432 38.4948 46.7836 38.4948 46.7836 36.8052 52.6432 36.8052 52.6432 38.4948 50.6836 38.4948"></polyline>
                        <path d="M63.3724,38.3856 C62.594,38.3856 62.1528,39.0348 62.1528,40.2956 C62.1528,41.5556 62.6136,42.2252 63.3932,42.2252 C64.1736,42.2252 64.6128,41.5748 64.6128,40.3156 C64.6128,39.0556 64.1532,38.3856 63.3724,38.3856 M63.3724,43.9152 C61.4728,43.9152 60.1428,42.6456 60.1428,40.3156 C60.1428,37.9856 61.4928,36.6948 63.3932,36.6948 C65.294,36.6948 66.6236,37.9652 66.6236,40.2956 C66.6236,42.6244 65.2728,43.9152 63.3724,43.9152" id="Fill-6" fill="#FFFFFE"></path>
                        <path d="M77.834,38.3856 L76.6628,38.3856 L76.6628,39.9152 L77.8032,39.9152 C78.4328,39.9152 78.684,39.6356 78.684,39.1352 C78.684,38.6956 78.4424,38.3856 77.834,38.3856 M78.584,43.8052 L77.444,41.4452 L76.6628,41.4452 L76.6628,43.8052 L74.754,43.8052 L74.754,36.8052 L77.884,36.8052 C79.5244,36.8052 80.6132,37.4244 80.6132,39.0848 C80.6132,40.1348 80.124,40.7852 79.3536,41.1356 L80.754,43.8052 L78.584,43.8052" id="Fill-7" fill="#FFFFFE"></path>
                        <polygon id="Fill-8" fill="#FFFFFE" points="88.9628 43.8052 90.9424 43.8052 90.9424 36.8052 88.9628 36.8052"></polygon>
                        <path d="M102.9528,40.5748 C102.7024,39.6752 102.5932,39.2948 102.5024,38.8248 C102.4132,39.2948 102.3024,39.6856 102.0528,40.5748 L101.9236,41.0356 L103.0836,41.0356 L102.9528,40.5748 Z M103.9332,43.8052 L103.5524,42.5748 L101.4524,42.5748 L101.0732,43.8052 L98.9932,43.8052 L101.5328,36.8052 L103.494,36.8052 L106.0328,43.8052 L103.9332,43.8052 L103.9332,43.8052 Z" id="Fill-9" fill="#FFFFFE"></path>
                        <polyline id="Fill-10" fill="#29662C" points="13.0296 9.4432 3.1332 9.4432 3.1332 0.99 29.2196 0.99 16.9048 20.6344 27.8316 20.6344 27.8316 29.366 0.3612 29.366 13.0296 9.4432"></polyline>
                        <path d="M75.0736,20.5952 C72.3036,20.5952 70.286,18.5348 70.286,15.2376 C70.286,11.942 72.3036,9.8412 75.0736,9.8412 C77.8472,9.8412 79.8248,11.942 79.8248,15.2376 C79.8248,18.5348 77.8472,20.5952 75.0736,20.5952 M75.0736,0.3564 C66.1808,0.3564 59.9524,7.0196 59.9524,15.238 C59.9524,23.456 66.1808,30.1196 75.0736,30.1196 C83.9668,30.1196 90.1952,23.456 90.1952,15.238 C90.1952,7.0196 83.9668,0.3564 75.0736,0.3564" id="Fill-11" fill="#29662C"></path>
                        <path d="M42.7148,20.5952 C39.9448,20.5952 37.9272,18.5348 37.9272,15.2376 C37.9272,11.942 39.9448,9.8412 42.7148,9.8412 C45.4884,9.8412 47.4656,11.942 47.4656,15.2376 C47.4656,18.5348 45.4884,20.5952 42.7148,20.5952 M42.7148,0.3564 C33.8216,0.3564 27.5936,7.0196 27.5936,15.238 C27.5936,23.456 33.8216,30.1196 42.7148,30.1196 C51.608,30.1196 57.8364,23.456 57.8364,15.238 C57.8364,7.0196 51.608,0.3564 42.7148,0.3564" id="Fill-12" fill="#29662C"></path>
                        <path d="M93.6376,19.0096 C96.3684,20.8748 98.586,21.9428 100.7252,21.9428 C102.1872,21.9428 102.9776,21.39 102.9776,20.4768 C102.9776,19.1672 101.5564,19.0096 99.2188,18.4912 C94.3908,17.4632 91.9372,14.802 91.9372,10.6724 C91.9372,4.722 96.5648,0.3568 103.772,0.3568 C107.0164,0.3568 110.0632,1.1892 113.3128,2.9356 L110.2244,10.3592 C108.2436,8.8892 106.184,8.1336 104.4068,8.1336 C102.9776,8.1336 102.1872,8.65 102.1872,9.4836 C102.1872,10.8728 104.0892,11.0716 107.4532,11.8264 C111.218,12.6588 113.7476,15.476 113.7476,19.4432 C113.7476,25.5172 108.9184,30.1192 101.5156,30.1192 C97.7948,30.1192 94.0332,29.0512 90.392,26.9432 L93.6376,19.0096" id="Fill-13" fill="#29662C"></path>
                    </g>
                    <path d="M125,49 L125,1" id="Stroke-14" stroke="#1A1919"></path>
                    <polyline id="Fill-15" fill="#0089BD" points="137.73 45.288 139.9968 39.2248 140.9568 39.2248 137.73 47.6508 134.5036 39.2248 135.4636 39.2248 137.73 45.288"></polyline>
                    <path d="M142.7936,40.3524 C142.7936,40.6908 142.5192,40.9536 142.1924,40.9536 C141.8664,40.9536 141.5916,40.6908 141.5916,40.3524 C141.5916,40.026 141.8664,39.752 142.1924,39.752 C142.5192,39.752 142.7936,40.026 142.7936,40.3524 L142.7936,40.3524 Z M141.7704,47.176 L142.6144,47.176 L142.6144,42.2192 L141.7704,42.2192 L141.7704,47.176 Z" id="Fill-16" fill="#0089BD"></path>
                    <path d="M148.0548,43.6956 L148.0348,43.6956 C147.644,43.2 147.1588,42.862 146.4952,42.862 C145.472,42.862 144.7452,43.7064 144.7452,44.6968 C144.7452,45.678 145.42,46.5324 146.4528,46.5324 C147.1588,46.5324 147.6548,46.2148 148.0656,45.678 L148.0868,45.678 L148.0868,46.8068 C147.6016,47.1328 147.106,47.3124 146.516,47.3124 C145.018,47.3124 143.8804,46.1948 143.8804,44.6968 C143.8804,43.2212 145.0712,42.0824 146.5268,42.0824 C147.064,42.0824 147.6116,42.2616 148.0548,42.5772 L148.0548,43.6956" id="Fill-17" fill="#0089BD"></path>
                    <polyline id="Fill-18" fill="#0089BD" points="150.2804 47.176 149.4364 47.176 149.4364 43.0004 148.9196 43.0004 148.9196 42.2192 149.4364 42.2192 149.4364 40.438 150.2804 40.438 150.2804 42.2192 151.1664 42.2192 151.1664 43.0004 150.2804 43.0004 150.2804 47.176"></polyline>
                    <path d="M151.4824,44.7072 C151.4824,43.2532 152.6312,42.0824 154.0868,42.0824 C155.5416,42.0824 156.6916,43.2532 156.6916,44.7072 C156.6916,46.1628 155.5316,47.3124 154.0868,47.3124 C152.642,47.3124 151.4824,46.1628 151.4824,44.7072 M152.326,44.6968 C152.326,45.71 153.042,46.5324 154.0868,46.5324 C155.1308,46.5324 155.8476,45.71 155.8476,44.6968 C155.8476,43.6964 155.1308,42.8632 154.0868,42.8632 C153.042,42.8632 152.326,43.6964 152.326,44.6968" id="Fill-19" fill="#0089BD"></path>
                    <path d="M158.6524,42.7576 L158.6732,42.7576 C158.9684,42.3676 159.2212,42.0824 159.7692,42.0824 C160.0548,42.0824 160.286,42.1776 160.5292,42.3144 L160.1288,43.0856 C159.96,42.9672 159.844,42.862 159.6224,42.862 C158.6944,42.862 158.6524,44.0544 158.6524,44.6968 L158.6524,47.176 L157.8084,47.176 L157.8084,42.2192 L158.6524,42.2192 L158.6524,42.7576" id="Fill-20" fill="#0089BD"></path>
                    <path d="M162.5648,40.3524 C162.5648,40.6908 162.2896,40.9536 161.9628,40.9536 C161.6368,40.9536 161.362,40.6908 161.362,40.3524 C161.362,40.026 161.6368,39.752 161.9628,39.752 C162.2896,39.752 162.5648,40.026 162.5648,40.3524 L162.5648,40.3524 Z M161.5408,47.176 L162.3848,47.176 L162.3848,42.2192 L161.5408,42.2192 L161.5408,47.176 Z" id="Fill-21" fill="#0089BD"></path>
                    <g id="Group-25" transform="translate(163.600000, 19.200000)">
                        <path d="M5.0688,27.976 L4.226,27.976 L4.226,27.2908 L4.2052,27.2908 C3.772,27.8388 3.192,28.1124 2.4964,28.1124 C1.0412,28.1124 0.1236,26.8792 0.1236,25.5084 C0.1236,24.0952 1.0196,22.8836 2.5064,22.8836 C3.1812,22.8836 3.7932,23.1996 4.2052,23.7264 L4.226,23.7264 L4.226,23.0192 L5.0688,23.0192 L5.0688,27.976 Z M0.9884,25.4452 C0.9884,26.4148 1.5584,27.3312 2.6132,27.3312 C3.698,27.3312 4.268,26.4572 4.268,25.4552 C4.268,24.4636 3.646,23.6616 2.6012,23.6616 C1.6224,23.6616 0.9884,24.5172 0.9884,25.4452 L0.9884,25.4452 Z" id="Fill-22" fill="#0089BD"></path>
                        <path d="M133.2024,1.7676 C132.9524,0.8756 132.5056,0.2804 131.2272,0.2764 C128.334,0.2696 125.4372,2.0028 124.7264,2.4424 C123.0604,3.468 122.3256,6.7376 125.6412,7.1548 C128.1208,7.4676 130.8144,5.9868 131.5696,5.4896 C132.0408,5.1808 133.7252,3.6236 133.2024,1.7676" id="Fill-24" fill="#6BB864"></path>
                    </g>
                    <path d="M284.9348,15.4512 C285.3308,13.8244 283.8692,11.76 281.8344,13.0984 C277.848,15.7196 278.2208,18.1436 278.1888,18.5292 C278.0956,19.5896 280.0608,22.526 282.1944,20.4296 C284.254,18.4052 284.9348,15.4512 284.9348,15.4512" id="Fill-26" fill="#6BB864"></path>
                    <path d="M293.4848,17.4328 C295.6024,15.2232 293.7024,12.556 290.988,13.1216 C287.1172,13.9272 284.9932,17.252 284.748,18.0144 C284.408,19.076 284.61,21.3064 287.6452,20.744 C289.7316,20.358 292.2636,18.7068 293.4848,17.4328" id="Fill-27" fill="#6BB864"></path>
                    <path d="M291.7028,31.3148 C292.1324,31.1428 293.138,30.4952 293.104,29.5772 C293.0928,29.2352 293.0748,28.3744 291.9088,27.7852 C289.0196,26.3316 286.8796,27.0716 286.1848,27.1896 C285.4096,27.3196 284.3532,28.2152 284.3868,29.2412 C284.414,30.0372 285.1444,30.8388 285.748,31.2428 C287.0152,32.0948 288.7152,31.9176 289.1752,31.9348 C290.0132,31.9648 291.7028,31.3148 291.7028,31.3148" id="Fill-28" fill="#6BB864"></path>
                    <path d="M281.9184,22.1572 C281.4624,22.11 278.3204,21.7232 276.0592,22.1524 C275.9084,22.1808 273.0844,23.0268 274.4876,26.1164 C276.002,29.4552 277.8268,30.7408 278.1276,30.9312 C278.4308,31.12 279.9036,32.1428 281.3184,30.6868 C282.9084,29.0496 284.1308,27.0336 284.5008,25.8624 C284.852,24.754 285.1336,22.488 281.9184,22.1572" id="Fill-29" fill="#6BB864"></path>
                    <path d="M261.496,29.1572 C262.2088,29.1572 262.7768,29.7372 262.7768,30.462 C262.7768,31.198 262.2088,31.7728 261.49,31.7728 C260.7772,31.7728 260.1968,31.198 260.1968,30.462 C260.1968,29.7372 260.7772,29.1572 261.49,29.1572 L261.496,29.1572 Z M261.49,29.36 C260.9164,29.36 260.4476,29.8532 260.4476,30.462 C260.4476,31.0828 260.9164,31.5692 261.496,31.5692 C262.0764,31.5752 262.54,31.0828 262.54,30.468 C262.54,29.8532 262.0764,29.36 261.496,29.36 L261.49,29.36 Z M261.2472,31.222 L261.0152,31.222 L261.0152,29.7652 C261.1368,29.7492 261.2532,29.7324 261.4272,29.7324 C261.6468,29.7324 261.7916,29.7784 261.878,29.8408 C261.9652,29.9052 262.012,30.0052 262.012,30.1428 C262.012,30.3352 261.884,30.4508 261.728,30.4972 L261.728,30.5092 C261.856,30.5312 261.942,30.6472 261.9712,30.8632 C262.006,31.0888 262.042,31.1748 262.0648,31.222 L261.8212,31.222 C261.7852,31.1748 261.7512,31.0408 261.7232,30.8512 C261.6868,30.6648 261.5952,30.5952 261.4092,30.5952 L261.2472,30.5952 L261.2472,31.222 Z M261.2472,30.4164 L261.4152,30.4164 C261.6064,30.4164 261.7692,30.3472 261.7692,30.166 C261.7692,30.0392 261.676,29.9112 261.4152,29.9112 C261.34,29.9112 261.2872,29.9172 261.2472,29.9232 L261.2472,30.4164 L261.2472,30.4164 Z" id="Fill-30" fill="#6BB864"></path>
                    <path d="M260.6912,6.4124 C260.2244,4.8048 257.9296,3.7408 256.8316,5.9136 C254.6772,10.1708 256.2076,12.0884 256.3696,12.4388 C256.8176,13.4044 259.9836,14.9748 260.7916,12.0936 C261.5712,9.314 260.6912,6.4124 260.6912,6.4124" id="Fill-31" fill="#6BB864"></path>
                    <g id="Group-35" transform="translate(255.200000, 0.400000)">
                        <mask id="mask-2" fill="white">
                            <use xlink:href="#path-1"></use>
                        </mask>
                        <g id="Clip-33"></g>
                        <path d="M6.2112,13.33 C5.792,13.5164 2.8744,14.7432 1.126,16.2408 C1.0088,16.3416 -1.0188,18.4804 1.7348,20.4624 C4.7112,22.604 6.9332,22.812 7.2892,22.8264 C7.6456,22.8408 9.4328,22.994 9.9348,21.0284 C10.4996,18.8172 10.5564,16.4588 10.2952,15.258 C10.0476,14.1228 9.1648,12.0164 6.2112,13.33" id="Fill-32" fill="#6BB864" mask="url(#mask-2)"></path>
                        <path d="M13.8932,3.4772 C14.6316,0.5064 11.6552,-0.862 9.5828,0.9792 C6.6256,3.6044 6.438,7.5448 6.6052,8.3272 C6.8368,9.4196 8.1228,11.252 10.4764,9.254 C12.0936,7.8816 13.4668,5.19 13.8932,3.4772" id="Fill-34" fill="#6BB864" mask="url(#mask-2)"></path>
                    </g>
                    <path d="M273.79,5.4104 C273.146,4.7452 272.4712,4.4336 271.3448,5.0376 C268.7952,6.4032 267.0704,9.3056 266.6528,10.0304 C265.6744,11.7248 266.5804,14.9496 269.696,13.7428 C272.0276,12.8404 273.6932,10.2572 274.1224,9.462 C274.3892,8.9656 275.132,6.7956 273.79,5.4104" id="Fill-36" fill="#6BB864"></path>
                    <path d="M274.3572,16.9628 C274.6452,16.5992 275.1932,15.5376 274.7092,14.7572 C274.5276,14.4668 274.0856,13.7284 272.7804,13.7988 C269.5512,13.9744 268.0632,15.682 267.5184,16.1296 C266.9116,16.6268 266.4396,17.9312 266.9792,18.8036 C267.3992,19.4816 268.434,19.8132 269.156,19.8636 C270.6792,19.9712 272.0668,18.9728 272.4736,18.7576 C273.2152,18.3668 274.3572,16.9628 274.3572,16.9628" id="Fill-37" fill="#6BB864"></path>
                    <path d="M134.5036,9.1932 L145.9808,9.1932 C151.876,9.1932 156.8696,11.69 156.8696,18.2788 C156.8696,22.2324 155.3436,23.896 151.8064,25.076 L151.8064,25.284 C152.292,25.6648 152.882,26.0808 153.402,26.8448 L159.0892,35.3396 L148.1308,35.3396 L143.9704,26.9476 L143.7972,26.9476 L143.7972,35.3396 L134.5036,35.3396 L134.5036,9.1932 Z M143.7972,20.7748 L144.4552,20.7748 C146.016,20.7748 147.5756,20.5324 147.5756,18.5912 C147.5756,16.5796 146.1548,16.3364 144.5252,16.3364 L143.7972,16.3364 L143.7972,20.7748 L143.7972,20.7748 Z" id="Fill-38" fill="#0089BD"></path>
                    <path d="M162.3136,25.9764 L162.7988,26.3584 C164.4984,27.6756 166.544,28.7512 168.728,28.7512 C169.6648,28.7512 171.1556,28.3692 171.1556,27.1916 C171.1556,26.0116 169.9076,25.908 169.04,25.734 L167.134,25.3876 C163.4236,24.7292 160.302,22.5444 160.302,18.452 C160.302,12.2452 165.9544,8.7772 171.6412,8.7772 C174.6228,8.7772 177.364,9.5048 179.9292,11.0652 L177.364,17.7584 C175.7328,16.6484 173.8952,15.7816 171.8492,15.7816 C171.0176,15.7816 169.8028,16.0936 169.8028,17.1688 C169.8028,18.14 170.9824,18.2788 171.7104,18.452 L173.8612,18.9376 C177.8836,19.8388 180.796,21.9892 180.796,26.4276 C180.796,32.6688 175.1088,35.7564 169.4568,35.7564 C166.162,35.7564 162.3488,34.8544 159.4012,33.3628 L162.3136,25.9764" id="Fill-39" fill="#0089BD"></path>
                    <path d="M183.7436,9.1932 L195.776,9.1932 C201.8792,9.1932 206.3864,12.314 206.3864,18.7992 C206.3864,24.1392 203.0584,27.4676 197.7528,27.4676 L192.8976,27.4676 L192.8976,35.3396 L183.7436,35.3396 L183.7436,9.1932 Z M192.8976,20.8796 L193.8348,20.8796 C195.4984,20.8796 197.3008,20.602 197.3008,18.4868 C197.3008,16.4412 195.3604,16.3364 193.7996,16.3364 L192.8976,16.3364 L192.8976,20.8796 L192.8976,20.8796 Z" id="Fill-40" fill="#0089BD"></path>
                    <path d="M228.372,19.804 C226.846,18.3832 224.9392,17.1688 222.7884,17.1688 C219.9456,17.1688 217.622,19.4236 217.622,22.2668 C217.622,25.1448 220.0836,27.3632 222.9284,27.3632 C225.112,27.3632 226.846,26.4276 228.372,24.9368 L228.0948,34.7156 C226.5688,35.4444 223.0312,35.7564 221.332,35.7564 C213.8772,35.7564 208.0512,29.9652 208.0512,22.5092 C208.0512,14.8804 214.0504,8.7772 221.7136,8.7772 C223.8644,8.7772 226.0828,9.158 228.0948,9.8524 L228.372,19.804" id="Fill-41" fill="#0089BD"></path>
                    <path d="M239.4332,35.3396 L229.3764,35.3396 L238.4624,9.1932 L248.9688,9.1932 L258.2964,35.3396 L248.2412,35.3396 L247.374,32.0808 L240.196,32.0808 L239.4332,35.3396 Z M245.7092,25.8728 L244.5992,21.2612 C244.3232,20.1516 244.1492,19.0068 243.9764,17.898 L243.6284,17.898 L241.896,25.8728 L245.7092,25.8728 L245.7092,25.8728 Z" id="Fill-42" fill="#0089BD"></path>
                </g>
            </g>
        </g>
    </g>
</svg>
